<?xml version="1.0" encoding="UTF-8" standalone="no"?>
<!DOCTYPE svg PUBLIC "-//W3C//DTD SVG 1.1//EN"
 "http://www.w3.org/Graphics/SVG/1.1/DTD/svg11.dtd">
<!-- Generated by graphviz version 2.43.0 (0)
 -->
<!-- Title: %3 Pages: 1 -->
<svg width="1389pt" height="2151pt"
 viewBox="0.00 0.00 1389.00 2151.25" xmlns="http://www.w3.org/2000/svg" xmlns:xlink="http://www.w3.org/1999/xlink">
<g id="graph0" class="graph" transform="scale(1 1) rotate(0) translate(4 2147.25)">
<title>%3</title>
<polygon fill="white" stroke="transparent" points="-4,4 -4,-2147.25 1385,-2147.25 1385,4 -4,4"/>
<text text-anchor="start" x="352" y="-11.8" font-family="Arial" font-size="34.00">Internet Banking System &#45; Deployment &#45; Live</text>
<g id="clust1" class="cluster">
<title>cluster_67</title>
<polygon fill="none" stroke="#888888" points="357,-1785.25 357,-2093.25 777,-2093.25 777,-1785.25 357,-1785.25"/>
<text text-anchor="start" x="428.5" y="-1814.05" font-family="Arial" font-size="24.00" fill="#000000">Customer&#39;s mobile device</text>
<text text-anchor="start" x="392" y="-1794.05" font-family="Arial" font-size="19.00" fill="#000000">[Deployment Node: Apple iOS or Android]</text>
</g>
<g id="clust2" class="cluster">
<title>cluster_69</title>
<polygon fill="none" stroke="#888888" points="827,-1692.25 827,-2135.25 1338,-2135.25 1338,-1692.25 827,-1692.25"/>
<text text-anchor="start" x="967.5" y="-1721.05" font-family="Arial" font-size="24.00" fill="#000000">Customer&#39;s computer</text>
<text text-anchor="start" x="844" y="-1701.05" font-family="Arial" font-size="19.00" fill="#000000">[Deployment Node: Microsoft Windows or Apple macOS]</text>
</g>
<g id="clust3" class="cluster">
<title>cluster_70</title>
<polygon fill="none" stroke="#888888" points="852,-1768.25 852,-2110.25 1313,-2110.25 1313,-1768.25 852,-1768.25"/>
<text text-anchor="start" x="1010" y="-1797.05" font-family="Arial" font-size="24.00" fill="#000000">Web Browser</text>
<text text-anchor="start" x="860" y="-1777.05" font-family="Arial" font-size="19.00" fill="#000000">[Deployment Node: Chrome, Firefox, Safari, or Edge]</text>
</g>
<g id="clust4" class="cluster">
<title>cluster_72</title>
<polygon fill="none" stroke="#888888" points="8,-64 8,-1624.25 1372,-1624.25 1372,-64 8,-64"/>
<text text-anchor="start" x="623" y="-92.8" font-family="Arial" font-size="24.00" fill="#000000">Big Bank plc</text>
<text text-anchor="start" x="500.5" y="-72.8" font-family="Arial" font-size="19.00" fill="#000000">[Deployment Node: Big Bank plc data center]</text>
</g>
<g id="clust5" class="cluster">
<title>cluster_73</title>
<polygon fill="none" stroke="#888888" points="892,-1214.25 892,-1599.25 1338,-1599.25 1338,-1214.25 892,-1214.25"/>
<text text-anchor="start" x="1032.5" y="-1243.05" font-family="Arial" font-size="24.00" fill="#000000">bigbank&#45;web***</text>
<text text-anchor="start" x="952.5" y="-1223.05" font-family="Arial" font-size="19.00" fill="#000000">[Deployment Node: Ubuntu 16.04 LTS]</text>
</g>
<g id="clust6" class="cluster">
<title>cluster_74</title>
<polygon fill="none" stroke="#888888" points="917,-1290.25 917,-1574.25 1313,-1574.25 1313,-1290.25 917,-1290.25"/>
<text text-anchor="start" x="1032" y="-1319.05" font-family="Arial" font-size="24.00" fill="#000000">Apache Tomcat</text>
<text text-anchor="start" x="948" y="-1299.05" font-family="Arial" font-size="19.00" fill="#000000">[Deployment Node: Apache Tomcat 8.x]</text>
</g>
<g id="clust7" class="cluster">
<title>cluster_77</title>
<polygon fill="none" stroke="#888888" points="358,-1214.25 358,-1599.25 858,-1599.25 858,-1214.25 358,-1214.25"/>
<text text-anchor="start" x="531.5" y="-1243.05" font-family="Arial" font-size="24.00" fill="#000000">bigbank&#45;api***</text>
<text text-anchor="start" x="445.5" y="-1223.05" font-family="Arial" font-size="19.00" fill="#000000">[Deployment Node: Ubuntu 16.04 LTS]</text>
</g>
<g id="clust8" class="cluster">
<title>cluster_78</title>
<polygon fill="none" stroke="#888888" points="383,-1290.25 383,-1574.25 833,-1574.25 833,-1290.25 383,-1290.25"/>
<text text-anchor="start" x="525" y="-1319.05" font-family="Arial" font-size="24.00" fill="#000000">Apache Tomcat</text>
<text text-anchor="start" x="441" y="-1299.05" font-family="Arial" font-size="19.00" fill="#000000">[Deployment Node: Apache Tomcat 8.x]</text>
</g>
<g id="clust9" class="cluster">
<title>cluster_82</title>
<polygon fill="none" stroke="#888888" points="33,-668.62 33,-1155.25 511,-1155.25 511,-668.62 33,-668.62"/>
<text text-anchor="start" x="198" y="-697.42" font-family="Arial" font-size="24.00" fill="#000000">bigbank&#45;db01</text>
<text text-anchor="start" x="109.5" y="-677.42" font-family="Arial" font-size="19.00" fill="#000000">[Deployment Node: Ubuntu 16.04 LTS]</text>
</g>
<g id="clust10" class="cluster">
<title>cluster_83</title>
<polygon fill="none" stroke="#888888" points="58,-744.62 58,-1130.25 486,-1130.25 486,-744.62 58,-744.62"/>
<text text-anchor="start" x="183.5" y="-773.42" font-family="Arial" font-size="24.00" fill="#000000">Oracle &#45; Primary</text>
<text text-anchor="start" x="139.5" y="-753.42" font-family="Arial" font-size="19.00" fill="#000000">[Deployment Node: Oracle 12c]</text>
</g>
<g id="clust11" class="cluster">
<title>cluster_86</title>
<polygon fill="none" stroke="#888888" points="201,-140 201,-626.62 679,-626.62 679,-140 201,-140"/>
<text text-anchor="start" x="366" y="-168.8" font-family="Arial" font-size="24.00" fill="#000000">bigbank&#45;db02</text>
<text text-anchor="start" x="277.5" y="-148.8" font-family="Arial" font-size="19.00" fill="#000000">[Deployment Node: Ubuntu 16.04 LTS]</text>
</g>
<g id="clust12" class="cluster">
<title>cluster_87</title>
<polygon fill="none" stroke="#888888" points="226,-216 226,-601.62 654,-601.62 654,-216 226,-216"/>
<text text-anchor="start" x="335.5" y="-244.8" font-family="Arial" font-size="24.00" fill="#000000">Oracle &#45; Secondary</text>
<text text-anchor="start" x="307.5" y="-224.8" font-family="Arial" font-size="19.00" fill="#000000">[Deployment Node: Oracle 12c]</text>
</g>
<g id="clust13" class="cluster">
<title>cluster_90</title>
<polygon fill="none" stroke="#888888" points="925,-778.44 925,-1096.44 1347,-1096.44 1347,-778.44 925,-778.44"/>
<text text-anchor="start" x="1044.5" y="-807.24" font-family="Arial" font-size="24.00" fill="#000000">bigbank&#45;prod001</text>
<text text-anchor="start" x="1054.5" y="-787.24" font-family="Arial" font-size="19.00" fill="#000000">[Deployment Node]</text>
</g>
<!-- 68 -->
<g id="68" class="node">
<title>68</title>
<polygon fill="#438dd5" stroke="#2e6295" points="751.5,-2068.25 382.5,-2068.25 382.5,-1861.25 751.5,-1861.25 751.5,-2068.25"/>
<text text-anchor="start" x="483" y="-2020.05" font-family="Arial" font-size="34.00" fill="#ffffff">Mobile App</text>
<text text-anchor="start" x="480" y="-1998.05" font-family="Arial" font-size="19.00" fill="#ffffff">[Container: Xamarin]</text>
<text text-anchor="start" x="419" y="-1961.05" font-family="Arial" font-size="24.00" fill="#ffffff">Provides a limited subset of</text>
<text text-anchor="start" x="459.5" y="-1937.05" font-family="Arial" font-size="24.00" fill="#ffffff">the Internet banking</text>
<text text-anchor="start" x="411.5" y="-1913.05" font-family="Arial" font-size="24.00" fill="#ffffff">functionality to customers via</text>
<text text-anchor="start" x="462.5" y="-1889.05" font-family="Arial" font-size="24.00" fill="#ffffff">their mobile device.</text>
</g>
<!-- 79 -->
<g id="79" class="node">
<title>79</title>
<polygon fill="#438dd5" stroke="#2e6295" points="808,-1549.25 408,-1549.25 408,-1366.25 808,-1366.25 808,-1549.25"/>
<text text-anchor="start" x="493.5" y="-1501.05" font-family="Arial" font-size="34.00" fill="#ffffff">API Application</text>
<text text-anchor="start" x="464" y="-1479.05" font-family="Arial" font-size="19.00" fill="#ffffff">[Container: Java and Spring MVC]</text>
<text text-anchor="start" x="470.5" y="-1442.05" font-family="Arial" font-size="24.00" fill="#ffffff">Provides Internet banking</text>
<text text-anchor="start" x="437" y="-1418.05" font-family="Arial" font-size="24.00" fill="#ffffff">functionality via a JSON/HTTPS</text>
<text text-anchor="start" x="585" y="-1394.05" font-family="Arial" font-size="24.00" fill="#ffffff">API.</text>
</g>
<!-- 68&#45;&gt;79 -->
<g id="80" class="edge">
<title>68&#45;&gt;79</title>
<path fill="none" stroke="#707070" stroke-dasharray="5,2" d="M552.98,-1860.9C546.48,-1795.15 542.44,-1708.27 554,-1632.25 557.67,-1608.13 564.05,-1582.74 571.17,-1559.06"/>
<polygon fill="#707070" stroke="#707070" points="574.55,-1559.97 574.15,-1549.38 567.86,-1557.91 574.55,-1559.97"/>
<text text-anchor="start" x="554" y="-1661.55" font-family="Arial" font-size="24.00" fill="#707070">Makes API calls to</text>
<text text-anchor="start" x="588" y="-1641.55" font-family="Arial" font-size="19.00" fill="#707070">[JSON/HTTPS]</text>
</g>
<!-- 71 -->
<g id="71" class="node">
<title>71</title>
<polygon fill="#438dd5" stroke="#2e6295" points="1260.5,-2085.25 903.5,-2085.25 903.5,-1844.25 1260.5,-1844.25 1260.5,-2085.25"/>
<text text-anchor="start" x="990" y="-2037.05" font-family="Arial" font-size="34.00" fill="#ffffff">Single&#45;Page</text>
<text text-anchor="start" x="999" y="-2003.05" font-family="Arial" font-size="34.00" fill="#ffffff">Application</text>
<text text-anchor="start" x="932.5" y="-1981.05" font-family="Arial" font-size="19.00" fill="#ffffff">[Container: JavaScript and Angular]</text>
<text text-anchor="start" x="941" y="-1944.05" font-family="Arial" font-size="24.00" fill="#ffffff">Provides all of the Internet</text>
<text text-anchor="start" x="958.5" y="-1920.05" font-family="Arial" font-size="24.00" fill="#ffffff">banking functionality to</text>
<text text-anchor="start" x="954.5" y="-1896.05" font-family="Arial" font-size="24.00" fill="#ffffff">customers via their web</text>
<text text-anchor="start" x="1036" y="-1872.05" font-family="Arial" font-size="24.00" fill="#ffffff">browser.</text>
</g>
<!-- 71&#45;&gt;79 -->
<g id="81" class="edge">
<title>71&#45;&gt;79</title>
<path fill="none" stroke="#707070" stroke-dasharray="5,2" d="M969.67,-1844.07C887.42,-1756.44 777.17,-1638.98 700.1,-1556.87"/>
<polygon fill="#707070" stroke="#707070" points="702.61,-1554.43 693.21,-1549.53 697.5,-1559.22 702.61,-1554.43"/>
<text text-anchor="start" x="816" y="-1661.55" font-family="Arial" font-size="24.00" fill="#707070">Makes API calls to</text>
<text text-anchor="start" x="850" y="-1641.55" font-family="Arial" font-size="19.00" fill="#707070">[JSON/HTTPS]</text>
</g>
<!-- 75 -->
<g id="75" class="node">
<title>75</title>
<polygon fill="#438dd5" stroke="#2e6295" points="1288,-1549.25 942,-1549.25 942,-1366.25 1288,-1366.25 1288,-1549.25"/>
<text text-anchor="start" x="993.5" y="-1501.05" font-family="Arial" font-size="34.00" fill="#ffffff">Web Application</text>
<text text-anchor="start" x="971" y="-1479.05" font-family="Arial" font-size="19.00" fill="#ffffff">[Container: Java and Spring MVC]</text>
<text text-anchor="start" x="976.5" y="-1442.05" font-family="Arial" font-size="24.00" fill="#ffffff">Delivers the static content</text>
<text text-anchor="start" x="984" y="-1418.05" font-family="Arial" font-size="24.00" fill="#ffffff">and the Internet banking</text>
<text text-anchor="start" x="988.5" y="-1394.05" font-family="Arial" font-size="24.00" fill="#ffffff">single page application.</text>
</g>
<!-- 75&#45;&gt;71 -->
<g id="76" class="edge">
<title>75&#45;&gt;71</title>
<path fill="none" stroke="#707070" stroke-dasharray="5,2" d="M1109.07,-1549.53C1103.89,-1628.81 1096.31,-1744.8 1090.49,-1833.9"/>
<polygon fill="#707070" stroke="#707070" points="1086.98,-1833.87 1089.82,-1844.07 1093.97,-1834.32 1086.98,-1833.87"/>
<text text-anchor="start" x="1103" y="-1665.05" font-family="Arial" font-size="24.00" fill="#707070">Delivers to the customer&#39;s</text>
<text text-anchor="start" x="1173" y="-1639.05" font-family="Arial" font-size="24.00" fill="#707070">web browser</text>
</g>
<!-- 84 -->
<g id="84" class="node">
<title>84</title>
<path fill="#438dd5" stroke="#2e6295" d="M461.5,-1079.22C461.5,-1093.48 376.56,-1105.06 272,-1105.06 167.44,-1105.06 82.5,-1093.48 82.5,-1079.22 82.5,-1079.22 82.5,-846.65 82.5,-846.65 82.5,-832.39 167.44,-820.81 272,-820.81 376.56,-820.81 461.5,-832.39 461.5,-846.65 461.5,-846.65 461.5,-1079.22 461.5,-1079.22"/>
<path fill="none" stroke="#2e6295" d="M461.5,-1079.22C461.5,-1064.96 376.56,-1053.38 272,-1053.38 167.44,-1053.38 82.5,-1064.96 82.5,-1079.22"/>
<text text-anchor="start" x="199" y="-1018.24" font-family="Arial" font-size="34.00" fill="#ffffff">Database</text>
<text text-anchor="start" x="111.5" y="-996.24" font-family="Arial" font-size="19.00" fill="#ffffff">[Container: Oracle Database Schema]</text>
<text text-anchor="start" x="146.5" y="-959.24" font-family="Arial" font-size="24.00" fill="#ffffff">Stores user registration</text>
<text text-anchor="start" x="165" y="-935.24" font-family="Arial" font-size="24.00" fill="#ffffff">information, hashed</text>
<text text-anchor="start" x="131" y="-911.24" font-family="Arial" font-size="24.00" fill="#ffffff">authentication credentials,</text>
<text text-anchor="start" x="182.5" y="-887.24" font-family="Arial" font-size="24.00" fill="#ffffff">access logs, etc.</text>
</g>
<!-- 79&#45;&gt;84 -->
<g id="85" class="edge">
<title>79&#45;&gt;84</title>
<path fill="none" stroke="#707070" stroke-dasharray="5,2" d="M467.76,-1366.09C413.25,-1323.87 355.3,-1269.05 319,-1206.25 303.01,-1178.6 292.35,-1146.5 285.27,-1114.9"/>
<polygon fill="#707070" stroke="#707070" points="288.69,-1114.16 283.19,-1105.11 281.85,-1115.62 288.69,-1114.16"/>
<text text-anchor="start" x="319" y="-1188.05" font-family="Arial" font-size="24.00" fill="#707070">Reads from and writes to</text>
<text text-anchor="start" x="423.5" y="-1168.05" font-family="Arial" font-size="19.00" fill="#707070">[JDBC]</text>
</g>
<!-- 88 -->
<g id="88" class="node">
<title>88</title>
<path fill="#438dd5" stroke="#2e6295" d="M629.5,-550.6C629.5,-564.86 544.56,-576.44 440,-576.44 335.44,-576.44 250.5,-564.86 250.5,-550.6 250.5,-550.6 250.5,-318.03 250.5,-318.03 250.5,-303.77 335.44,-292.19 440,-292.19 544.56,-292.19 629.5,-303.77 629.5,-318.03 629.5,-318.03 629.5,-550.6 629.5,-550.6"/>
<path fill="none" stroke="#2e6295" d="M629.5,-550.6C629.5,-536.34 544.56,-524.76 440,-524.76 335.44,-524.76 250.5,-536.34 250.5,-550.6"/>
<text text-anchor="start" x="367" y="-489.61" font-family="Arial" font-size="34.00" fill="#ffffff">Database</text>
<text text-anchor="start" x="279.5" y="-467.61" font-family="Arial" font-size="19.00" fill="#ffffff">[Container: Oracle Database Schema]</text>
<text text-anchor="start" x="314.5" y="-430.61" font-family="Arial" font-size="24.00" fill="#ffffff">Stores user registration</text>
<text text-anchor="start" x="333" y="-406.61" font-family="Arial" font-size="24.00" fill="#ffffff">information, hashed</text>
<text text-anchor="start" x="299" y="-382.61" font-family="Arial" font-size="24.00" fill="#ffffff">authentication credentials,</text>
<text text-anchor="start" x="350.5" y="-358.61" font-family="Arial" font-size="24.00" fill="#ffffff">access logs, etc.</text>
</g>
<!-- 79&#45;&gt;88 -->
<g id="89" class="edge">
<title>79&#45;&gt;88</title>
<path fill="none" stroke="#707070" stroke-dasharray="5,2" d="M612.69,-1365.99C621.11,-1181.14 633.95,-767.25 588,-634.62 581.99,-617.27 573.88,-600.18 564.53,-583.73"/>
<polygon fill="#707070" stroke="#707070" points="567.29,-581.52 559.22,-574.66 561.25,-585.06 567.29,-581.52"/>
<text text-anchor="start" x="621" y="-966.24" font-family="Arial" font-size="24.00" fill="#707070">Reads from and writes to</text>
<text text-anchor="start" x="725.5" y="-946.24" font-family="Arial" font-size="19.00" fill="#707070">[JDBC]</text>
</g>
<!-- 91 -->
<g id="91" class="node">
<title>91</title>
<polygon fill="#999999" stroke="#6b6b6b" points="1322,-1071.44 950,-1071.44 950,-854.44 1322,-854.44 1322,-1071.44"/>
<text text-anchor="start" x="989.5" y="-1023.24" font-family="Arial" font-size="34.00" fill="#ffffff">Mainframe Banking</text>
<text text-anchor="start" x="1078.5" y="-989.24" font-family="Arial" font-size="34.00" fill="#ffffff">System</text>
<text text-anchor="start" x="1059" y="-967.24" font-family="Arial" font-size="19.00" fill="#ffffff">[Software System]</text>
<text text-anchor="start" x="979" y="-930.24" font-family="Arial" font-size="24.00" fill="#ffffff">Stores all of the core banking</text>
<text text-anchor="start" x="979.5" y="-906.24" font-family="Arial" font-size="24.00" fill="#ffffff">information about customers,</text>
<text text-anchor="start" x="989" y="-882.24" font-family="Arial" font-size="24.00" fill="#ffffff">accounts, transactions, etc.</text>
</g>
<!-- 79&#45;&gt;91 -->
<g id="92" class="edge">
<title>79&#45;&gt;91</title>
<path fill="none" stroke="#707070" stroke-dasharray="5,2" d="M705.15,-1366.07C791.86,-1285.14 919.25,-1166.24 1013.04,-1078.71"/>
<polygon fill="#707070" stroke="#707070" points="1015.66,-1081.05 1020.58,-1071.67 1010.88,-1075.93 1015.66,-1081.05"/>
<text text-anchor="start" x="919" y="-1188.05" font-family="Arial" font-size="24.00" fill="#707070">Makes API calls to</text>
<text text-anchor="start" x="959" y="-1168.05" font-family="Arial" font-size="19.00" fill="#707070">[XML/HTTPS]</text>
</g>
<!-- 84&#45;&gt;88 -->
<g id="93" class="edge">
<title>84&#45;&gt;88</title>
<path fill="none" stroke="#707070" stroke-dasharray="5,2" d="M341.32,-744.63C355.5,-700.19 370.25,-653.95 383.9,-611.18"/>
<polygon fill="#707070" stroke="#707070" points="387.24,-612.21 386.94,-601.62 380.57,-610.09 387.24,-612.21"/>
<text text-anchor="start" x="376" y="-641.42" font-family="Arial" font-size="24.00" fill="#707070">Replicates data to</text>
</g>
</g>
</svg>
