<?xml version="1.0" encoding="UTF-8" standalone="no"?>
<!DOCTYPE svg PUBLIC "-//W3C//DTD SVG 1.1//EN"
 "http://www.w3.org/Graphics/SVG/1.1/DTD/svg11.dtd">
<!-- Generated by graphviz version 2.43.0 (0)
 -->
<!-- Title: %3 Pages: 1 -->
<svg width="1472pt" height="1522pt"
 viewBox="0.00 0.00 1472.00 1521.62" xmlns="http://www.w3.org/2000/svg" xmlns:xlink="http://www.w3.org/1999/xlink">
<g id="graph0" class="graph" transform="scale(1 1) rotate(0) translate(4 1517.62)">
<title>%3</title>
<polygon fill="white" stroke="transparent" points="-4,4 -4,-1517.62 1468,-1517.62 1468,4 -4,4"/>
<text text-anchor="start" x="324.5" y="-11.8" font-family="Arial" font-size="34.00">Internet Banking System &#45; Deployment &#45; Development</text>
<g id="clust1" class="cluster">
<title>cluster_50</title>
<polygon fill="none" stroke="#888888" points="8,-64 8,-1505.62 976,-1505.62 976,-64 8,-64"/>
<text text-anchor="start" x="396" y="-92.8" font-family="Arial" font-size="24.00" fill="#000000">Developer Laptop</text>
<text text-anchor="start" x="240.5" y="-72.8" font-family="Arial" font-size="19.00" fill="#000000">[Deployment Node: Microsoft Windows 10 or Apple macOS]</text>
</g>
<g id="clust2" class="cluster">
<title>cluster_51</title>
<polygon fill="none" stroke="#888888" points="219,-1138.62 219,-1480.62 680,-1480.62 680,-1138.62 219,-1138.62"/>
<text text-anchor="start" x="377" y="-1167.42" font-family="Arial" font-size="24.00" fill="#000000">Web Browser</text>
<text text-anchor="start" x="227" y="-1147.42" font-family="Arial" font-size="19.00" fill="#000000">[Deployment Node: Chrome, Firefox, Safari, or Edge]</text>
</g>
<g id="clust3" class="cluster">
<title>cluster_53</title>
<polygon fill="none" stroke="#888888" points="33,-685.62 33,-1070.62 951,-1070.62 951,-685.62 33,-685.62"/>
<text text-anchor="start" x="323" y="-714.42" font-family="Arial" font-size="24.00" fill="#000000">Docker Container &#45; Web Server</text>
<text text-anchor="start" x="375.5" y="-694.42" font-family="Arial" font-size="19.00" fill="#000000">[Deployment Node: Docker]</text>
</g>
<g id="clust4" class="cluster">
<title>cluster_54</title>
<polygon fill="none" stroke="#888888" points="58,-761.62 58,-1045.62 926,-1045.62 926,-761.62 58,-761.62"/>
<text text-anchor="start" x="409" y="-790.42" font-family="Arial" font-size="24.00" fill="#000000">Apache Tomcat</text>
<text text-anchor="start" x="325" y="-770.42" font-family="Arial" font-size="19.00" fill="#000000">[Deployment Node: Apache Tomcat 8.x]</text>
</g>
<g id="clust5" class="cluster">
<title>cluster_59</title>
<polygon fill="none" stroke="#888888" points="44,-140 44,-626.62 522,-626.62 522,-140 44,-140"/>
<text text-anchor="start" x="87" y="-168.8" font-family="Arial" font-size="24.00" fill="#000000">Docker Container &#45; Database Server</text>
<text text-anchor="start" x="166.5" y="-148.8" font-family="Arial" font-size="19.00" fill="#000000">[Deployment Node: Docker]</text>
</g>
<g id="clust6" class="cluster">
<title>cluster_60</title>
<polygon fill="none" stroke="#888888" points="69,-216 69,-601.62 497,-601.62 497,-216 69,-216"/>
<text text-anchor="start" x="192" y="-244.8" font-family="Arial" font-size="24.00" fill="#000000">Database Server</text>
<text text-anchor="start" x="150.5" y="-224.8" font-family="Arial" font-size="19.00" fill="#000000">[Deployment Node: Oracle 12c]</text>
</g>
<g id="clust7" class="cluster">
<title>cluster_63</title>
<polygon fill="none" stroke="#888888" points="984,-173.81 984,-592.81 1456,-592.81 1456,-173.81 984,-173.81"/>
<text text-anchor="start" x="1153" y="-202.61" font-family="Arial" font-size="24.00" fill="#000000">Big Bank plc</text>
<text text-anchor="start" x="1030.5" y="-182.61" font-family="Arial" font-size="19.00" fill="#000000">[Deployment Node: Big Bank plc data center]</text>
</g>
<g id="clust8" class="cluster">
<title>cluster_64</title>
<polygon fill="none" stroke="#888888" points="1009,-249.81 1009,-567.81 1431,-567.81 1431,-249.81 1009,-249.81"/>
<text text-anchor="start" x="1133.5" y="-278.61" font-family="Arial" font-size="24.00" fill="#000000">bigbank&#45;dev001</text>
<text text-anchor="start" x="1138.5" y="-258.61" font-family="Arial" font-size="19.00" fill="#000000">[Deployment Node]</text>
</g>
<!-- 52 -->
<g id="52" class="node">
<title>52</title>
<polygon fill="#438dd5" stroke="#2e6295" points="627.5,-1455.62 270.5,-1455.62 270.5,-1214.62 627.5,-1214.62 627.5,-1455.62"/>
<text text-anchor="start" x="357" y="-1407.42" font-family="Arial" font-size="34.00" fill="#ffffff">Single&#45;Page</text>
<text text-anchor="start" x="366" y="-1373.42" font-family="Arial" font-size="34.00" fill="#ffffff">Application</text>
<text text-anchor="start" x="299.5" y="-1351.42" font-family="Arial" font-size="19.00" fill="#ffffff">[Container: JavaScript and Angular]</text>
<text text-anchor="start" x="308" y="-1314.42" font-family="Arial" font-size="24.00" fill="#ffffff">Provides all of the Internet</text>
<text text-anchor="start" x="325.5" y="-1290.42" font-family="Arial" font-size="24.00" fill="#ffffff">banking functionality to</text>
<text text-anchor="start" x="321.5" y="-1266.42" font-family="Arial" font-size="24.00" fill="#ffffff">customers via their web</text>
<text text-anchor="start" x="403" y="-1242.42" font-family="Arial" font-size="24.00" fill="#ffffff">browser.</text>
</g>
<!-- 57 -->
<g id="57" class="node">
<title>57</title>
<polygon fill="#438dd5" stroke="#2e6295" points="483,-1020.62 83,-1020.62 83,-837.62 483,-837.62 483,-1020.62"/>
<text text-anchor="start" x="168.5" y="-972.42" font-family="Arial" font-size="34.00" fill="#ffffff">API Application</text>
<text text-anchor="start" x="139" y="-950.42" font-family="Arial" font-size="19.00" fill="#ffffff">[Container: Java and Spring MVC]</text>
<text text-anchor="start" x="145.5" y="-913.42" font-family="Arial" font-size="24.00" fill="#ffffff">Provides Internet banking</text>
<text text-anchor="start" x="112" y="-889.42" font-family="Arial" font-size="24.00" fill="#ffffff">functionality via a JSON/HTTPS</text>
<text text-anchor="start" x="260" y="-865.42" font-family="Arial" font-size="24.00" fill="#ffffff">API.</text>
</g>
<!-- 52&#45;&gt;57 -->
<g id="58" class="edge">
<title>52&#45;&gt;57</title>
<path fill="none" stroke="#707070" stroke-dasharray="5,2" d="M393.21,-1214.49C380.91,-1187.09 368.21,-1157.98 357,-1130.62 343.71,-1098.21 330.15,-1062.42 318.34,-1030.17"/>
<polygon fill="#707070" stroke="#707070" points="321.61,-1028.92 314.89,-1020.73 315.03,-1031.32 321.61,-1028.92"/>
<text text-anchor="start" x="357" y="-1107.92" font-family="Arial" font-size="24.00" fill="#707070">Makes API calls to</text>
<text text-anchor="start" x="391" y="-1087.92" font-family="Arial" font-size="19.00" fill="#707070">[JSON/HTTPS]</text>
</g>
<!-- 55 -->
<g id="55" class="node">
<title>55</title>
<polygon fill="#438dd5" stroke="#2e6295" points="901,-1020.62 555,-1020.62 555,-837.62 901,-837.62 901,-1020.62"/>
<text text-anchor="start" x="606.5" y="-972.42" font-family="Arial" font-size="34.00" fill="#ffffff">Web Application</text>
<text text-anchor="start" x="584" y="-950.42" font-family="Arial" font-size="19.00" fill="#ffffff">[Container: Java and Spring MVC]</text>
<text text-anchor="start" x="589.5" y="-913.42" font-family="Arial" font-size="24.00" fill="#ffffff">Delivers the static content</text>
<text text-anchor="start" x="597" y="-889.42" font-family="Arial" font-size="24.00" fill="#ffffff">and the Internet banking</text>
<text text-anchor="start" x="601.5" y="-865.42" font-family="Arial" font-size="24.00" fill="#ffffff">single page application.</text>
</g>
<!-- 55&#45;&gt;52 -->
<g id="56" class="edge">
<title>55&#45;&gt;52</title>
<path fill="none" stroke="#707070" stroke-dasharray="5,2" d="M665.36,-1020.82C627.63,-1075.46 579,-1145.88 537.4,-1206.12"/>
<polygon fill="#707070" stroke="#707070" points="534.38,-1204.33 531.58,-1214.55 540.14,-1208.31 534.38,-1204.33"/>
<text text-anchor="start" x="621" y="-1111.42" font-family="Arial" font-size="24.00" fill="#707070">Delivers to the customer&#39;s</text>
<text text-anchor="start" x="691" y="-1085.42" font-family="Arial" font-size="24.00" fill="#707070">web browser</text>
</g>
<!-- 61 -->
<g id="61" class="node">
<title>61</title>
<path fill="#438dd5" stroke="#2e6295" d="M472.5,-550.6C472.5,-564.86 387.56,-576.44 283,-576.44 178.44,-576.44 93.5,-564.86 93.5,-550.6 93.5,-550.6 93.5,-318.03 93.5,-318.03 93.5,-303.77 178.44,-292.19 283,-292.19 387.56,-292.19 472.5,-303.77 472.5,-318.03 472.5,-318.03 472.5,-550.6 472.5,-550.6"/>
<path fill="none" stroke="#2e6295" d="M472.5,-550.6C472.5,-536.34 387.56,-524.76 283,-524.76 178.44,-524.76 93.5,-536.34 93.5,-550.6"/>
<text text-anchor="start" x="210" y="-489.61" font-family="Arial" font-size="34.00" fill="#ffffff">Database</text>
<text text-anchor="start" x="122.5" y="-467.61" font-family="Arial" font-size="19.00" fill="#ffffff">[Container: Oracle Database Schema]</text>
<text text-anchor="start" x="157.5" y="-430.61" font-family="Arial" font-size="24.00" fill="#ffffff">Stores user registration</text>
<text text-anchor="start" x="176" y="-406.61" font-family="Arial" font-size="24.00" fill="#ffffff">information, hashed</text>
<text text-anchor="start" x="142" y="-382.61" font-family="Arial" font-size="24.00" fill="#ffffff">authentication credentials,</text>
<text text-anchor="start" x="193.5" y="-358.61" font-family="Arial" font-size="24.00" fill="#ffffff">access logs, etc.</text>
</g>
<!-- 57&#45;&gt;61 -->
<g id="62" class="edge">
<title>57&#45;&gt;61</title>
<path fill="none" stroke="#707070" stroke-dasharray="5,2" d="M283,-837.45C283,-767.4 283,-668.89 283,-586.91"/>
<polygon fill="#707070" stroke="#707070" points="286.5,-586.74 283,-576.74 279.5,-586.74 286.5,-586.74"/>
<text text-anchor="start" x="283" y="-659.42" font-family="Arial" font-size="24.00" fill="#707070">Reads from and writes to</text>
<text text-anchor="start" x="387.5" y="-639.42" font-family="Arial" font-size="19.00" fill="#707070">[JDBC]</text>
</g>
<!-- 65 -->
<g id="65" class="node">
<title>65</title>
<polygon fill="#999999" stroke="#6b6b6b" points="1406,-542.81 1034,-542.81 1034,-325.81 1406,-325.81 1406,-542.81"/>
<text text-anchor="start" x="1073.5" y="-494.61" font-family="Arial" font-size="34.00" fill="#ffffff">Mainframe Banking</text>
<text text-anchor="start" x="1162.5" y="-460.61" font-family="Arial" font-size="34.00" fill="#ffffff">System</text>
<text text-anchor="start" x="1143" y="-438.61" font-family="Arial" font-size="19.00" fill="#ffffff">[Software System]</text>
<text text-anchor="start" x="1063" y="-401.61" font-family="Arial" font-size="24.00" fill="#ffffff">Stores all of the core banking</text>
<text text-anchor="start" x="1063.5" y="-377.61" font-family="Arial" font-size="24.00" fill="#ffffff">information about customers,</text>
<text text-anchor="start" x="1073" y="-353.61" font-family="Arial" font-size="24.00" fill="#ffffff">accounts, transactions, etc.</text>
</g>
<!-- 57&#45;&gt;65 -->
<g id="66" class="edge">
<title>57&#45;&gt;65</title>
<path fill="none" stroke="#707070" stroke-dasharray="5,2" d="M346.95,-837.56C389.48,-784.51 450.07,-721.15 519,-685.62 539.79,-674.91 548.37,-683.52 571,-677.62 726.83,-637 897.2,-572.59 1024.27,-520.38"/>
<polygon fill="#707070" stroke="#707070" points="1025.81,-523.53 1033.73,-516.48 1023.15,-517.05 1025.81,-523.53"/>
<text text-anchor="start" x="716" y="-659.42" font-family="Arial" font-size="24.00" fill="#707070">Makes API calls to</text>
<text text-anchor="start" x="756" y="-639.42" font-family="Arial" font-size="19.00" fill="#707070">[XML/HTTPS]</text>
</g>
</g>
</svg>
