<?xml version="1.0" encoding="UTF-8" standalone="no"?>
<!DOCTYPE svg PUBLIC "-//W3C//DTD SVG 1.1//EN"
 "http://www.w3.org/Graphics/SVG/1.1/DTD/svg11.dtd">
<!-- Generated by graphviz version 2.43.0 (0)
 -->
<!-- Title: %3 Pages: 1 -->
<svg width="1339pt" height="1127pt"
 viewBox="0.00 0.00 1339.00 1126.62" xmlns="http://www.w3.org/2000/svg" xmlns:xlink="http://www.w3.org/1999/xlink">
<g id="graph0" class="graph" transform="scale(1 1) rotate(0) translate(4 1122.62)">
<title>%3</title>
<polygon fill="white" stroke="transparent" points="-4,4 -4,-1122.62 1335,-1122.62 1335,4 -4,4"/>
<text text-anchor="start" x="469.5" y="-35.8" font-family="Arial" font-size="34.00">API Application &#45; Dynamic</text>
<text text-anchor="start" x="274.5" y="-9.8" font-family="Arial" font-size="24.00">Summarises how the sign in feature works in the single&#45;page application.</text>
<g id="clust1" class="cluster">
<title>cluster_11</title>
<polygon fill="none" stroke="#444444" points="8,-475.62 8,-1110.62 745,-1110.62 745,-475.62 8,-475.62"/>
<text text-anchor="start" x="295.5" y="-504.42" font-family="Arial" font-size="24.00" fill="#444444">API Application</text>
<text text-anchor="start" x="232.5" y="-484.42" font-family="Arial" font-size="19.00" fill="#444444">[Container: Java and Spring MVC]</text>
</g>
<!-- 12 -->
<g id="12" class="node">
<title>12</title>
<polygon fill="#85bbf0" stroke="#5d82a8" points="678,-1085.62 268,-1085.62 268,-926.62 678,-926.62 678,-1085.62"/>
<text text-anchor="start" x="341.5" y="-1037.42" font-family="Arial" font-size="34.00" fill="#000000">Sign In Controller</text>
<text text-anchor="start" x="297" y="-1015.42" font-family="Arial" font-size="19.00" fill="#000000">[Component: Spring MVC Rest Controller]</text>
<text text-anchor="start" x="319.5" y="-978.42" font-family="Arial" font-size="24.00" fill="#000000">Allows users to sign in to the</text>
<text text-anchor="start" x="337.5" y="-954.42" font-family="Arial" font-size="24.00" fill="#000000">Internet Banking System.</text>
</g>
<!-- 15 -->
<g id="15" class="node">
<title>15</title>
<polygon fill="#85bbf0" stroke="#5d82a8" points="508,-758.62 140,-758.62 140,-575.62 508,-575.62 508,-758.62"/>
<text text-anchor="start" x="169.5" y="-710.42" font-family="Arial" font-size="34.00" fill="#000000">Security Component</text>
<text text-anchor="start" x="212.5" y="-688.42" font-family="Arial" font-size="19.00" fill="#000000">[Component: Spring Bean]</text>
<text text-anchor="start" x="169" y="-651.42" font-family="Arial" font-size="24.00" fill="#000000">Provides functionality related</text>
<text text-anchor="start" x="203.5" y="-627.42" font-family="Arial" font-size="24.00" fill="#000000">to signing in, changing</text>
<text text-anchor="start" x="239.5" y="-603.42" font-family="Arial" font-size="24.00" fill="#000000">passwords, etc.</text>
</g>
<!-- 12&#45;&gt;15 -->
<g id="40" class="edge">
<title>12&#45;&gt;15</title>
<path fill="none" stroke="#707070" stroke-dasharray="5,2" d="M267.83,-966.4C190.22,-947.23 114.98,-921.52 92,-890.62 58.56,-845.66 87.04,-801.74 134.02,-764.96"/>
<polygon fill="#707070" stroke="#707070" points="136.18,-767.71 142.03,-758.88 131.95,-762.14 136.18,-767.71"/>
<text text-anchor="start" x="92" y="-863.92" font-family="Arial" font-size="24.00" fill="#707070">2. Validates credentials</text>
<text text-anchor="start" x="187.5" y="-837.92" font-family="Arial" font-size="24.00" fill="#707070">using</text>
</g>
<!-- 8 -->
<g id="8" class="node">
<title>8</title>
<polygon fill="#438dd5" stroke="#2e6295" points="1211.5,-787.62 854.5,-787.62 854.5,-546.62 1211.5,-546.62 1211.5,-787.62"/>
<text text-anchor="start" x="941" y="-739.42" font-family="Arial" font-size="34.00" fill="#ffffff">Single&#45;Page</text>
<text text-anchor="start" x="950" y="-705.42" font-family="Arial" font-size="34.00" fill="#ffffff">Application</text>
<text text-anchor="start" x="883.5" y="-683.42" font-family="Arial" font-size="19.00" fill="#ffffff">[Container: JavaScript and Angular]</text>
<text text-anchor="start" x="892" y="-646.42" font-family="Arial" font-size="24.00" fill="#ffffff">Provides all of the Internet</text>
<text text-anchor="start" x="909.5" y="-622.42" font-family="Arial" font-size="24.00" fill="#ffffff">banking functionality to</text>
<text text-anchor="start" x="905.5" y="-598.42" font-family="Arial" font-size="24.00" fill="#ffffff">customers via their web</text>
<text text-anchor="start" x="987" y="-574.42" font-family="Arial" font-size="24.00" fill="#ffffff">browser.</text>
</g>
<!-- 12&#45;&gt;8 -->
<g id="32" class="edge">
<title>12&#45;&gt;8</title>
<path fill="none" stroke="#707070" stroke-dasharray="5,2" d="M664.87,-926.53C684.51,-915.58 703.61,-903.59 721,-890.62 752.81,-866.91 749.65,-849.18 780,-823.62 800.46,-806.4 823.01,-789.76 845.98,-774.19"/>
<polygon fill="#707070" stroke="#707070" points="848.1,-776.98 854.45,-768.51 844.2,-771.17 848.1,-776.98"/>
<text text-anchor="start" x="808.5" y="-872.42" font-family="Arial" font-size="24.00" fill="#707070">6. Sends back an</text>
<text text-anchor="start" x="780" y="-848.42" font-family="Arial" font-size="24.00" fill="#707070">authentication token to</text>
<text text-anchor="start" x="837.5" y="-828.42" font-family="Arial" font-size="19.00" fill="#707070">[JSON/HTTPS]</text>
</g>
<!-- 15&#45;&gt;12 -->
<g id="40" class="edge">
<title>15&#45;&gt;12</title>
<path fill="none" stroke="#707070" stroke-dasharray="5,2" d="M361.1,-758.68C378.01,-799.23 398.56,-847.53 418,-890.62 421.9,-899.28 426.05,-908.26 430.25,-917.21"/>
<polygon fill="#707070" stroke="#707070" points="427.2,-918.96 434.63,-926.52 433.53,-915.98 427.2,-918.96"/>
<text text-anchor="start" x="452.5" y="-863.92" font-family="Arial" font-size="24.00" fill="#707070">5. Returns true if the</text>
<text text-anchor="start" x="418" y="-837.92" font-family="Arial" font-size="24.00" fill="#707070">hashed password matches</text>
</g>
<!-- 18 -->
<g id="18" class="node">
<title>18</title>
<path fill="#438dd5" stroke="#2e6295" d="M513.5,-338.6C513.5,-352.86 428.56,-364.44 324,-364.44 219.44,-364.44 134.5,-352.86 134.5,-338.6 134.5,-338.6 134.5,-106.03 134.5,-106.03 134.5,-91.77 219.44,-80.19 324,-80.19 428.56,-80.19 513.5,-91.77 513.5,-106.03 513.5,-106.03 513.5,-338.6 513.5,-338.6"/>
<path fill="none" stroke="#2e6295" d="M513.5,-338.6C513.5,-324.34 428.56,-312.76 324,-312.76 219.44,-312.76 134.5,-324.34 134.5,-338.6"/>
<text text-anchor="start" x="251" y="-277.61" font-family="Arial" font-size="34.00" fill="#ffffff">Database</text>
<text text-anchor="start" x="163.5" y="-255.61" font-family="Arial" font-size="19.00" fill="#ffffff">[Container: Oracle Database Schema]</text>
<text text-anchor="start" x="198.5" y="-218.61" font-family="Arial" font-size="24.00" fill="#ffffff">Stores user registration</text>
<text text-anchor="start" x="217" y="-194.61" font-family="Arial" font-size="24.00" fill="#ffffff">information, hashed</text>
<text text-anchor="start" x="183" y="-170.61" font-family="Arial" font-size="24.00" fill="#ffffff">authentication credentials,</text>
<text text-anchor="start" x="234.5" y="-146.61" font-family="Arial" font-size="24.00" fill="#ffffff">access logs, etc.</text>
</g>
<!-- 15&#45;&gt;18 -->
<g id="44" class="edge">
<title>15&#45;&gt;18</title>
<path fill="none" stroke="#707070" stroke-dasharray="5,2" d="M226.38,-575.6C199.23,-544.33 173.28,-507.14 159,-467.62 146.56,-433.2 153.95,-398.93 171.06,-367.43"/>
<polygon fill="#707070" stroke="#707070" points="174.18,-369.04 176.14,-358.62 168.11,-365.54 174.18,-369.04"/>
<text text-anchor="start" x="159" y="-449.43" font-family="Arial" font-size="24.00" fill="#707070">3. select * from users</text>
<text text-anchor="start" x="161.5" y="-425.43" font-family="Arial" font-size="24.00" fill="#707070">where username = ?</text>
<text text-anchor="start" x="242.5" y="-405.43" font-family="Arial" font-size="19.00" fill="#707070">[JDBC]</text>
</g>
<!-- 8&#45;&gt;12 -->
<g id="32" class="edge">
<title>8&#45;&gt;12</title>
<path fill="none" stroke="#707070" stroke-dasharray="5,2" d="M1066.81,-787.73C1070.03,-824.24 1065.27,-862.21 1042,-890.62 997.11,-945.44 829.85,-974.59 688.19,-989.72"/>
<polygon fill="#707070" stroke="#707070" points="687.62,-986.26 678.04,-990.79 688.35,-993.22 687.62,-986.26"/>
<text text-anchor="start" x="1066" y="-860.42" font-family="Arial" font-size="24.00" fill="#707070">1. Submits credentials to</text>
<text text-anchor="start" x="1134" y="-840.42" font-family="Arial" font-size="19.00" fill="#707070">[JSON/HTTPS]</text>
</g>
<!-- 18&#45;&gt;15 -->
<g id="44" class="edge">
<title>18&#45;&gt;15</title>
<path fill="none" stroke="#707070" stroke-dasharray="5,2" d="M391.42,-364.88C395.25,-376.79 398.54,-388.8 401,-400.62 412.51,-456.03 397.09,-516.71 377.1,-566.06"/>
<polygon fill="#707070" stroke="#707070" points="373.8,-564.88 373.18,-575.46 380.26,-567.58 373.8,-564.88"/>
<text text-anchor="start" x="405" y="-437.43" font-family="Arial" font-size="24.00" fill="#707070">4. Returns user data to</text>
<text text-anchor="start" x="498" y="-417.43" font-family="Arial" font-size="19.00" fill="#707070">[JDBC]</text>
</g>
</g>
</svg>
