<?xml version="1.0" encoding="UTF-8" standalone="no"?>
<!DOCTYPE svg PUBLIC "-//W3C//DTD SVG 1.1//EN"
 "http://www.w3.org/Graphics/SVG/1.1/DTD/svg11.dtd">
<!-- Generated by graphviz version 2.43.0 (0)
 -->
<!-- Title: %3 Pages: 1 -->
<svg width="1953pt" height="1051pt"
 viewBox="0.00 0.00 1953.00 1050.80" xmlns="http://www.w3.org/2000/svg" xmlns:xlink="http://www.w3.org/1999/xlink">
<g id="graph0" class="graph" transform="scale(1 1) rotate(0) translate(4 1046.8)">
<title>%3</title>
<polygon fill="white" stroke="transparent" points="-4,4 -4,-1046.8 1949,-1046.8 1949,4 -4,4"/>
<text text-anchor="start" x="827.5" y="-11.8" font-family="Arial" font-size="34.00">System Landscape</text>
<g id="clust1" class="cluster">
<title>cluster_group_Big Bank plc</title>
<polygon fill="none" stroke="#cccccc" stroke-dasharray="5,2" points="8,-64 8,-760.8 1702,-760.8 1702,-64 8,-64"/>
<text text-anchor="start" x="788" y="-77.6" font-family="Arial" font-size="24.00" fill="#cccccc">Big Bank plc</text>
</g>
<!-- 2 -->
<g id="2" class="node">
<title>2</title>
<polygon fill="#999999" stroke="#6b6b6b" points="372.5,-718.8 33.5,-718.8 33.5,-535.8 372.5,-535.8 372.5,-718.8"/>
<text text-anchor="start" x="75.5" y="-672.2" font-family="Arial" font-size="32.00" fill="#ffffff">Customer Service</text>
<text text-anchor="start" x="170" y="-640.2" font-family="Arial" font-size="32.00" fill="#ffffff">Staff</text>
<text text-anchor="start" x="171" y="-620.2" font-family="Arial" font-size="17.00" fill="#ffffff">[Person]</text>
<text text-anchor="start" x="62.5" y="-585.2" font-family="Arial" font-size="22.00" fill="#ffffff">Customer service staff within</text>
<text text-anchor="start" x="158" y="-563.2" font-family="Arial" font-size="22.00" fill="#ffffff">the bank.</text>
</g>
<!-- 4 -->
<g id="4" class="node">
<title>4</title>
<polygon fill="#999999" stroke="#6b6b6b" points="961,-368.8 589,-368.8 589,-151.8 961,-151.8 961,-368.8"/>
<text text-anchor="start" x="628.5" y="-320.6" font-family="Arial" font-size="34.00" fill="#ffffff">Mainframe Banking</text>
<text text-anchor="start" x="717.5" y="-286.6" font-family="Arial" font-size="34.00" fill="#ffffff">System</text>
<text text-anchor="start" x="698" y="-264.6" font-family="Arial" font-size="19.00" fill="#ffffff">[Software System]</text>
<text text-anchor="start" x="618" y="-227.6" font-family="Arial" font-size="24.00" fill="#ffffff">Stores all of the core banking</text>
<text text-anchor="start" x="618.5" y="-203.6" font-family="Arial" font-size="24.00" fill="#ffffff">information about customers,</text>
<text text-anchor="start" x="628" y="-179.6" font-family="Arial" font-size="24.00" fill="#ffffff">accounts, transactions, etc.</text>
</g>
<!-- 2&#45;&gt;4 -->
<g id="24" class="edge">
<title>2&#45;&gt;4</title>
<path fill="none" stroke="#707070" stroke-dasharray="5,2" d="M345.13,-535.61C421.51,-486.87 516.39,-426.32 597.58,-374.52"/>
<polygon fill="#707070" stroke="#707070" points="599.85,-377.22 606.39,-368.89 596.08,-371.32 599.85,-377.22"/>
<text text-anchor="start" x="541" y="-437.6" font-family="Arial" font-size="24.00" fill="#707070">Uses</text>
</g>
<!-- 3 -->
<g id="3" class="node">
<title>3</title>
<polygon fill="#999999" stroke="#6b6b6b" points="1210.5,-702.8 891.5,-702.8 891.5,-551.8 1210.5,-551.8 1210.5,-702.8"/>
<text text-anchor="start" x="932.5" y="-656.2" font-family="Arial" font-size="32.00" fill="#ffffff">Back Office Staff</text>
<text text-anchor="start" x="1019" y="-636.2" font-family="Arial" font-size="17.00" fill="#ffffff">[Person]</text>
<text text-anchor="start" x="920.5" y="-601.2" font-family="Arial" font-size="22.00" fill="#ffffff">Administration and support</text>
<text text-anchor="start" x="951.5" y="-579.2" font-family="Arial" font-size="22.00" fill="#ffffff">staff within the bank.</text>
</g>
<!-- 3&#45;&gt;4 -->
<g id="27" class="edge">
<title>3&#45;&gt;4</title>
<path fill="none" stroke="#707070" stroke-dasharray="5,2" d="M985.96,-551.75C967.47,-529.87 947.58,-505.66 930,-482.8 904.11,-449.13 877.15,-411.59 853.12,-377.11"/>
<polygon fill="#707070" stroke="#707070" points="855.98,-375.1 847.4,-368.89 850.24,-379.09 855.98,-375.1"/>
<text text-anchor="start" x="930" y="-437.6" font-family="Arial" font-size="24.00" fill="#707070">Uses</text>
</g>
<!-- 5 -->
<g id="5" class="node">
<title>5</title>
<polygon fill="#999999" stroke="#6b6b6b" points="1656.5,-339.8 1327.5,-339.8 1327.5,-180.8 1656.5,-180.8 1656.5,-339.8"/>
<text text-anchor="start" x="1382" y="-291.6" font-family="Arial" font-size="34.00" fill="#ffffff">E&#45;mail System</text>
<text text-anchor="start" x="1415" y="-269.6" font-family="Arial" font-size="19.00" fill="#ffffff">[Software System]</text>
<text text-anchor="start" x="1375" y="-232.6" font-family="Arial" font-size="24.00" fill="#ffffff">The internal Microsoft</text>
<text text-anchor="start" x="1356.5" y="-208.6" font-family="Arial" font-size="24.00" fill="#ffffff">Exchange e&#45;mail system.</text>
</g>
<!-- 1 -->
<g id="1" class="node">
<title>1</title>
<polygon fill="#08427b" stroke="#052e56" points="1328,-1042.8 996,-1042.8 996,-859.8 1328,-859.8 1328,-1042.8"/>
<text text-anchor="start" x="1036.5" y="-996.2" font-family="Arial" font-size="32.00" fill="#ffffff">Personal Banking</text>
<text text-anchor="start" x="1092" y="-964.2" font-family="Arial" font-size="32.00" fill="#ffffff">Customer</text>
<text text-anchor="start" x="1130" y="-944.2" font-family="Arial" font-size="17.00" fill="#ffffff">[Person]</text>
<text text-anchor="start" x="1025" y="-909.2" font-family="Arial" font-size="22.00" fill="#ffffff">A customer of the bank, with</text>
<text text-anchor="start" x="1043" y="-887.2" font-family="Arial" font-size="22.00" fill="#ffffff">personal bank accounts.</text>
</g>
<!-- 5&#45;&gt;1 -->
<g id="22" class="edge">
<title>5&#45;&gt;1</title>
<path fill="none" stroke="#707070" stroke-dasharray="5,2" d="M1653.61,-339.82C1676.56,-357.96 1697.06,-379.53 1711,-404.8 1787.43,-543.34 1777.37,-616.26 1713,-760.8 1695.97,-799.04 1679.83,-803.92 1643,-823.8 1548.61,-874.75 1432.56,-906.04 1338.1,-924.76"/>
<polygon fill="#707070" stroke="#707070" points="1337.3,-921.35 1328.15,-926.7 1338.64,-928.22 1337.3,-921.35"/>
<text text-anchor="start" x="1764" y="-621.1" font-family="Arial" font-size="24.00" fill="#707070">Sends e&#45;mails to</text>
</g>
<!-- 6 -->
<g id="6" class="node">
<title>6</title>
<polygon fill="#999999" stroke="#6b6b6b" points="819.5,-706.8 444.5,-706.8 444.5,-547.8 819.5,-547.8 819.5,-706.8"/>
<text text-anchor="start" x="597" y="-658.6" font-family="Arial" font-size="34.00" fill="#ffffff">ATM</text>
<text text-anchor="start" x="555" y="-636.6" font-family="Arial" font-size="19.00" fill="#ffffff">[Software System]</text>
<text text-anchor="start" x="473.5" y="-599.6" font-family="Arial" font-size="24.00" fill="#ffffff">Allows customers to withdraw</text>
<text text-anchor="start" x="603" y="-575.6" font-family="Arial" font-size="24.00" fill="#ffffff">cash.</text>
</g>
<!-- 6&#45;&gt;4 -->
<g id="26" class="edge">
<title>6&#45;&gt;4</title>
<path fill="none" stroke="#707070" stroke-dasharray="5,2" d="M662.85,-547.55C682.18,-498.22 707.44,-433.75 729.09,-378.48"/>
<polygon fill="#707070" stroke="#707070" points="732.42,-379.57 732.81,-368.99 725.9,-377.02 732.42,-379.57"/>
<text text-anchor="start" x="717" y="-437.6" font-family="Arial" font-size="24.00" fill="#707070">Uses</text>
</g>
<!-- 7 -->
<g id="7" class="node">
<title>7</title>
<polygon fill="#1168bd" stroke="#0b4884" points="1677,-735.8 1283,-735.8 1283,-518.8 1677,-518.8 1677,-735.8"/>
<text text-anchor="start" x="1356" y="-687.6" font-family="Arial" font-size="34.00" fill="#ffffff">Internet Banking</text>
<text text-anchor="start" x="1422.5" y="-653.6" font-family="Arial" font-size="34.00" fill="#ffffff">System</text>
<text text-anchor="start" x="1403" y="-631.6" font-family="Arial" font-size="19.00" fill="#ffffff">[Software System]</text>
<text text-anchor="start" x="1345" y="-594.6" font-family="Arial" font-size="24.00" fill="#ffffff">Allows customers to view</text>
<text text-anchor="start" x="1329.5" y="-570.6" font-family="Arial" font-size="24.00" fill="#ffffff">information about their bank</text>
<text text-anchor="start" x="1312" y="-546.6" font-family="Arial" font-size="24.00" fill="#ffffff">accounts, and make payments.</text>
</g>
<!-- 7&#45;&gt;4 -->
<g id="20" class="edge">
<title>7&#45;&gt;4</title>
<path fill="none" stroke="#707070" stroke-dasharray="5,2" d="M1282.66,-535.36C1237.08,-514.06 1195.4,-494.25 1173,-482.8 1106.17,-448.64 1034.19,-409.36 970.06,-373.46"/>
<polygon fill="#707070" stroke="#707070" points="971.5,-370.25 961.07,-368.42 968.08,-376.36 971.5,-370.25"/>
<text text-anchor="start" x="1184.5" y="-463.6" font-family="Arial" font-size="24.00" fill="#707070">Gets account information</text>
<text text-anchor="start" x="1173" y="-437.6" font-family="Arial" font-size="24.00" fill="#707070">from, and makes payments</text>
<text text-anchor="start" x="1290.5" y="-411.6" font-family="Arial" font-size="24.00" fill="#707070">using</text>
</g>
<!-- 7&#45;&gt;5 -->
<g id="21" class="edge">
<title>7&#45;&gt;5</title>
<path fill="none" stroke="#707070" stroke-dasharray="5,2" d="M1483.54,-518.76C1485.3,-465.15 1487.4,-401.1 1489.07,-350.29"/>
<polygon fill="#707070" stroke="#707070" points="1492.58,-350.1 1489.41,-339.99 1485.59,-349.87 1492.58,-350.1"/>
<text text-anchor="start" x="1487" y="-437.6" font-family="Arial" font-size="24.00" fill="#707070">Sends e&#45;mail using</text>
</g>
<!-- 1&#45;&gt;2 -->
<g id="23" class="edge">
<title>1&#45;&gt;2</title>
<path fill="none" stroke="#707070" stroke-dasharray="5,2" d="M995.88,-924.7C839.62,-896.91 601.42,-844.87 408,-760.8 384.48,-750.58 360.62,-737.78 337.9,-724.2"/>
<polygon fill="#707070" stroke="#707070" points="339.62,-721.15 329.26,-718.97 336,-727.14 339.62,-721.15"/>
<text text-anchor="start" x="568" y="-801.1" font-family="Arial" font-size="24.00" fill="#707070">Asks questions to</text>
<text text-anchor="start" x="613.5" y="-781.1" font-family="Arial" font-size="19.00" fill="#707070">[Telephone]</text>
</g>
<!-- 1&#45;&gt;6 -->
<g id="25" class="edge">
<title>1&#45;&gt;6</title>
<path fill="none" stroke="#707070" stroke-dasharray="5,2" d="M1012.96,-859.75C936.9,-813.54 844.97,-757.69 770.48,-712.43"/>
<polygon fill="#707070" stroke="#707070" points="771.85,-709.17 761.48,-706.97 768.21,-715.15 771.85,-709.17"/>
<text text-anchor="start" x="944" y="-791.6" font-family="Arial" font-size="24.00" fill="#707070">Withdraws cash using</text>
</g>
<!-- 1&#45;&gt;7 -->
<g id="19" class="edge">
<title>1&#45;&gt;7</title>
<path fill="none" stroke="#707070" stroke-dasharray="5,2" d="M1251.43,-859.75C1287.08,-823.65 1328.54,-781.67 1366.29,-743.44"/>
<polygon fill="#707070" stroke="#707070" points="1369.25,-745.43 1373.78,-735.85 1364.27,-740.51 1369.25,-745.43"/>
<text text-anchor="start" x="1344.5" y="-804.6" font-family="Arial" font-size="24.00" fill="#707070">Views account balances,</text>
<text text-anchor="start" x="1330" y="-778.6" font-family="Arial" font-size="24.00" fill="#707070">and makes payments using</text>
</g>
</g>
</svg>
