<?xml version="1.0" encoding="UTF-8" standalone="no"?>
<!DOCTYPE svg PUBLIC "-//W3C//DTD SVG 1.1//EN"
 "http://www.w3.org/Graphics/SVG/1.1/DTD/svg11.dtd">
<!-- Generated by graphviz version 2.43.0 (0)
 -->
<!-- Title: %3 Pages: 1 -->
<svg width="1255pt" height="1022pt"
 viewBox="0.00 0.00 1255.00 1021.80" xmlns="http://www.w3.org/2000/svg" xmlns:xlink="http://www.w3.org/1999/xlink">
<g id="graph0" class="graph" transform="scale(1 1) rotate(0) translate(4 1017.8)">
<title>%3</title>
<polygon fill="white" stroke="transparent" points="-4,4 -4,-1017.8 1251,-1017.8 1251,4 -4,4"/>
<text text-anchor="start" x="301.5" y="-11.8" font-family="Arial" font-size="34.00">Internet Banking System &#45; System Context</text>
<g id="clust1" class="cluster">
<title>cluster_group_Big Bank plc</title>
<polygon fill="none" stroke="#cccccc" stroke-dasharray="5,2" points="8,-309 8,-1005.8 831,-1005.8 831,-309 8,-309"/>
<text text-anchor="start" x="352.5" y="-322.6" font-family="Arial" font-size="24.00" fill="#cccccc">Big Bank plc</text>
</g>
<!-- 4 -->
<g id="4" class="node">
<title>4</title>
<polygon fill="#999999" stroke="#6b6b6b" points="405,-613.8 33,-613.8 33,-396.8 405,-396.8 405,-613.8"/>
<text text-anchor="start" x="72.5" y="-565.6" font-family="Arial" font-size="34.00" fill="#ffffff">Mainframe Banking</text>
<text text-anchor="start" x="161.5" y="-531.6" font-family="Arial" font-size="34.00" fill="#ffffff">System</text>
<text text-anchor="start" x="142" y="-509.6" font-family="Arial" font-size="19.00" fill="#ffffff">[Software System]</text>
<text text-anchor="start" x="62" y="-472.6" font-family="Arial" font-size="24.00" fill="#ffffff">Stores all of the core banking</text>
<text text-anchor="start" x="62.5" y="-448.6" font-family="Arial" font-size="24.00" fill="#ffffff">information about customers,</text>
<text text-anchor="start" x="72" y="-424.6" font-family="Arial" font-size="24.00" fill="#ffffff">accounts, transactions, etc.</text>
</g>
<!-- 5 -->
<g id="5" class="node">
<title>5</title>
<polygon fill="#999999" stroke="#6b6b6b" points="806.5,-584.8 477.5,-584.8 477.5,-425.8 806.5,-425.8 806.5,-584.8"/>
<text text-anchor="start" x="532" y="-536.6" font-family="Arial" font-size="34.00" fill="#ffffff">E&#45;mail System</text>
<text text-anchor="start" x="565" y="-514.6" font-family="Arial" font-size="19.00" fill="#ffffff">[Software System]</text>
<text text-anchor="start" x="525" y="-477.6" font-family="Arial" font-size="24.00" fill="#ffffff">The internal Microsoft</text>
<text text-anchor="start" x="506.5" y="-453.6" font-family="Arial" font-size="24.00" fill="#ffffff">Exchange e&#45;mail system.</text>
</g>
<!-- 1 -->
<g id="1" class="node">
<title>1</title>
<polygon fill="#08427b" stroke="#052e56" points="962,-239 630,-239 630,-56 962,-56 962,-239"/>
<text text-anchor="start" x="670.5" y="-192.4" font-family="Arial" font-size="32.00" fill="#ffffff">Personal Banking</text>
<text text-anchor="start" x="726" y="-160.4" font-family="Arial" font-size="32.00" fill="#ffffff">Customer</text>
<text text-anchor="start" x="764" y="-140.4" font-family="Arial" font-size="17.00" fill="#ffffff">[Person]</text>
<text text-anchor="start" x="659" y="-105.4" font-family="Arial" font-size="22.00" fill="#ffffff">A customer of the bank, with</text>
<text text-anchor="start" x="677" y="-83.4" font-family="Arial" font-size="22.00" fill="#ffffff">personal bank accounts.</text>
</g>
<!-- 5&#45;&gt;1 -->
<g id="22" class="edge">
<title>5&#45;&gt;1</title>
<path fill="none" stroke="#707070" stroke-dasharray="5,2" d="M661.53,-425.69C674.1,-380.51 692.32,-323.31 715,-275 719.2,-266.06 723.93,-256.99 728.94,-248.04"/>
<polygon fill="#707070" stroke="#707070" points="732.1,-249.55 734.03,-239.13 726.03,-246.07 732.1,-249.55"/>
<text text-anchor="start" x="715" y="-281.8" font-family="Arial" font-size="24.00" fill="#707070">Sends e&#45;mails to</text>
</g>
<!-- 7 -->
<g id="7" class="node">
<title>7</title>
<polygon fill="#1168bd" stroke="#0b4884" points="797,-980.8 403,-980.8 403,-763.8 797,-763.8 797,-980.8"/>
<text text-anchor="start" x="476" y="-932.6" font-family="Arial" font-size="34.00" fill="#ffffff">Internet Banking</text>
<text text-anchor="start" x="542.5" y="-898.6" font-family="Arial" font-size="34.00" fill="#ffffff">System</text>
<text text-anchor="start" x="523" y="-876.6" font-family="Arial" font-size="19.00" fill="#ffffff">[Software System]</text>
<text text-anchor="start" x="465" y="-839.6" font-family="Arial" font-size="24.00" fill="#ffffff">Allows customers to view</text>
<text text-anchor="start" x="449.5" y="-815.6" font-family="Arial" font-size="24.00" fill="#ffffff">information about their bank</text>
<text text-anchor="start" x="432" y="-791.6" font-family="Arial" font-size="24.00" fill="#ffffff">accounts, and make payments.</text>
</g>
<!-- 7&#45;&gt;4 -->
<g id="20" class="edge">
<title>7&#45;&gt;4</title>
<path fill="none" stroke="#707070" stroke-dasharray="5,2" d="M402.64,-799.79C367.56,-780.47 333.74,-756.69 307,-727.8 280.04,-698.67 260.92,-660.27 247.57,-623.64"/>
<polygon fill="#707070" stroke="#707070" points="250.75,-622.13 244.12,-613.87 244.15,-624.46 250.75,-622.13"/>
<text text-anchor="start" x="318.5" y="-708.6" font-family="Arial" font-size="24.00" fill="#707070">Gets account information</text>
<text text-anchor="start" x="307" y="-682.6" font-family="Arial" font-size="24.00" fill="#707070">from, and makes payments</text>
<text text-anchor="start" x="424.5" y="-656.6" font-family="Arial" font-size="24.00" fill="#707070">using</text>
</g>
<!-- 7&#45;&gt;5 -->
<g id="21" class="edge">
<title>7&#45;&gt;5</title>
<path fill="none" stroke="#707070" stroke-dasharray="5,2" d="M612.37,-763.76C618.56,-710.04 625.94,-645.83 631.8,-594.97"/>
<polygon fill="#707070" stroke="#707070" points="635.28,-595.32 632.95,-584.99 628.33,-594.52 635.28,-595.32"/>
<text text-anchor="start" x="625" y="-682.6" font-family="Arial" font-size="24.00" fill="#707070">Sends e&#45;mail using</text>
</g>
<!-- 1&#45;&gt;7 -->
<g id="19" class="edge">
<title>1&#45;&gt;7</title>
<path fill="none" stroke="#707070" stroke-dasharray="5,2" d="M890.95,-239.34C898.61,-250.62 905.23,-262.58 910,-275 982.81,-464.56 962.81,-559.63 849,-727.8 836.87,-745.72 821.71,-761.68 804.89,-775.84"/>
<polygon fill="#707070" stroke="#707070" points="802.6,-773.19 797.05,-782.22 807.02,-778.62 802.6,-773.19"/>
<text text-anchor="start" x="966.5" y="-512.1" font-family="Arial" font-size="24.00" fill="#707070">Views account balances,</text>
<text text-anchor="start" x="952" y="-486.1" font-family="Arial" font-size="24.00" fill="#707070">and makes payments using</text>
</g>
</g>
</svg>
