<?xml version="1.0" encoding="UTF-8" standalone="no"?>
<!DOCTYPE svg PUBLIC "-//W3C//DTD SVG 1.1//EN"
 "http://www.w3.org/Graphics/SVG/1.1/DTD/svg11.dtd">
<!-- Generated by graphviz version 2.43.0 (0)
 -->
<!-- Title: %3 Pages: 1 -->
<svg width="1611pt" height="1675pt"
 viewBox="0.00 0.00 1611.00 1674.62" xmlns="http://www.w3.org/2000/svg" xmlns:xlink="http://www.w3.org/1999/xlink">
<g id="graph0" class="graph" transform="scale(1 1) rotate(0) translate(4 1670.62)">
<title>%3</title>
<polygon fill="white" stroke="transparent" points="-4,4 -4,-1670.62 1607,-1670.62 1607,4 -4,4"/>
<text text-anchor="start" x="518" y="-11.8" font-family="Arial" font-size="34.00">Internet Banking System &#45; Containers</text>
<g id="clust1" class="cluster">
<title>cluster_7</title>
<polygon fill="none" stroke="#444444" points="357,-64 357,-1434.62 1206,-1434.62 1206,-64 357,-64"/>
<text text-anchor="start" x="649.5" y="-92.8" font-family="Arial" font-size="24.00" fill="#444444">Internet Banking System</text>
<text text-anchor="start" x="704.5" y="-72.8" font-family="Arial" font-size="19.00" fill="#444444">[Software System]</text>
</g>
<!-- 1 -->
<g id="1" class="node">
<title>1</title>
<polygon fill="#08427b" stroke="#052e56" points="332,-1409.62 0,-1409.62 0,-1226.62 332,-1226.62 332,-1409.62"/>
<text text-anchor="start" x="40.5" y="-1363.03" font-family="Arial" font-size="32.00" fill="#ffffff">Personal Banking</text>
<text text-anchor="start" x="96" y="-1331.03" font-family="Arial" font-size="32.00" fill="#ffffff">Customer</text>
<text text-anchor="start" x="134" y="-1311.03" font-family="Arial" font-size="17.00" fill="#ffffff">[Person]</text>
<text text-anchor="start" x="29" y="-1276.03" font-family="Arial" font-size="22.00" fill="#ffffff">A customer of the bank, with</text>
<text text-anchor="start" x="47" y="-1254.03" font-family="Arial" font-size="22.00" fill="#ffffff">personal bank accounts.</text>
</g>
<!-- 10 -->
<g id="10" class="node">
<title>10</title>
<polygon fill="#438dd5" stroke="#2e6295" points="1027,-1409.62 681,-1409.62 681,-1226.62 1027,-1226.62 1027,-1409.62"/>
<text text-anchor="start" x="732.5" y="-1361.42" font-family="Arial" font-size="34.00" fill="#ffffff">Web Application</text>
<text text-anchor="start" x="710" y="-1339.42" font-family="Arial" font-size="19.00" fill="#ffffff">[Container: Java and Spring MVC]</text>
<text text-anchor="start" x="715.5" y="-1302.42" font-family="Arial" font-size="24.00" fill="#ffffff">Delivers the static content</text>
<text text-anchor="start" x="723" y="-1278.42" font-family="Arial" font-size="24.00" fill="#ffffff">and the Internet banking</text>
<text text-anchor="start" x="727.5" y="-1254.42" font-family="Arial" font-size="24.00" fill="#ffffff">single page application.</text>
</g>
<!-- 1&#45;&gt;10 -->
<g id="28" class="edge">
<title>1&#45;&gt;10</title>
<path fill="none" stroke="#707070" stroke-dasharray="5,2" d="M332.11,-1318.12C434.38,-1318.12 565.61,-1318.12 670.88,-1318.12"/>
<polygon fill="#707070" stroke="#707070" points="670.99,-1321.63 680.99,-1318.12 670.99,-1314.63 670.99,-1321.63"/>
<text text-anchor="start" x="393" y="-1369.92" font-family="Arial" font-size="24.00" fill="#707070">Visits bigbank.com/ib</text>
<text text-anchor="start" x="477.5" y="-1345.92" font-family="Arial" font-size="24.00" fill="#707070">using</text>
<text text-anchor="start" x="470" y="-1325.92" font-family="Arial" font-size="19.00" fill="#707070">[HTTPS]</text>
</g>
<!-- 8 -->
<g id="8" class="node">
<title>8</title>
<polygon fill="#438dd5" stroke="#2e6295" points="1180.5,-1102.62 823.5,-1102.62 823.5,-861.62 1180.5,-861.62 1180.5,-1102.62"/>
<text text-anchor="start" x="910" y="-1054.42" font-family="Arial" font-size="34.00" fill="#ffffff">Single&#45;Page</text>
<text text-anchor="start" x="919" y="-1020.42" font-family="Arial" font-size="34.00" fill="#ffffff">Application</text>
<text text-anchor="start" x="852.5" y="-998.42" font-family="Arial" font-size="19.00" fill="#ffffff">[Container: JavaScript and Angular]</text>
<text text-anchor="start" x="861" y="-961.42" font-family="Arial" font-size="24.00" fill="#ffffff">Provides all of the Internet</text>
<text text-anchor="start" x="878.5" y="-937.42" font-family="Arial" font-size="24.00" fill="#ffffff">banking functionality to</text>
<text text-anchor="start" x="874.5" y="-913.42" font-family="Arial" font-size="24.00" fill="#ffffff">customers via their web</text>
<text text-anchor="start" x="956" y="-889.42" font-family="Arial" font-size="24.00" fill="#ffffff">browser.</text>
</g>
<!-- 1&#45;&gt;8 -->
<g id="29" class="edge">
<title>1&#45;&gt;8</title>
<path fill="none" stroke="#707070" stroke-dasharray="5,2" d="M332.39,-1229.39C334.6,-1228.45 336.81,-1227.53 339,-1226.62 388.9,-1206.03 404.05,-1208.46 455,-1190.62 514.9,-1169.65 526.92,-1155.88 588,-1138.62 674.91,-1114.06 702.96,-1133.06 788,-1102.62 796.61,-1099.55 805.27,-1096.14 813.93,-1092.49"/>
<polygon fill="#707070" stroke="#707070" points="815.53,-1095.61 823.32,-1088.43 812.76,-1089.18 815.53,-1095.61"/>
<text text-anchor="start" x="602.5" y="-1171.42" font-family="Arial" font-size="24.00" fill="#707070">Views account balances,</text>
<text text-anchor="start" x="588" y="-1145.42" font-family="Arial" font-size="24.00" fill="#707070">and makes payments using</text>
</g>
<!-- 9 -->
<g id="9" class="node">
<title>9</title>
<polygon fill="#438dd5" stroke="#2e6295" points="751.5,-1085.62 382.5,-1085.62 382.5,-878.62 751.5,-878.62 751.5,-1085.62"/>
<text text-anchor="start" x="483" y="-1037.42" font-family="Arial" font-size="34.00" fill="#ffffff">Mobile App</text>
<text text-anchor="start" x="480" y="-1015.42" font-family="Arial" font-size="19.00" fill="#ffffff">[Container: Xamarin]</text>
<text text-anchor="start" x="419" y="-978.42" font-family="Arial" font-size="24.00" fill="#ffffff">Provides a limited subset of</text>
<text text-anchor="start" x="459.5" y="-954.42" font-family="Arial" font-size="24.00" fill="#ffffff">the Internet banking</text>
<text text-anchor="start" x="411.5" y="-930.42" font-family="Arial" font-size="24.00" fill="#ffffff">functionality to customers via</text>
<text text-anchor="start" x="462.5" y="-906.42" font-family="Arial" font-size="24.00" fill="#ffffff">their mobile device.</text>
</g>
<!-- 1&#45;&gt;9 -->
<g id="30" class="edge">
<title>1&#45;&gt;9</title>
<path fill="none" stroke="#707070" stroke-dasharray="5,2" d="M132.67,-1226.19C127.36,-1196.06 128.44,-1163.83 146,-1138.62 197.47,-1064.75 288.24,-1025.89 372.36,-1005.48"/>
<polygon fill="#707070" stroke="#707070" points="373.38,-1008.83 382.32,-1003.14 371.78,-1002.02 373.38,-1008.83"/>
<text text-anchor="start" x="160.5" y="-1171.42" font-family="Arial" font-size="24.00" fill="#707070">Views account balances,</text>
<text text-anchor="start" x="146" y="-1145.42" font-family="Arial" font-size="24.00" fill="#707070">and makes payments using</text>
</g>
<!-- 4 -->
<g id="4" class="node">
<title>4</title>
<polygon fill="#999999" stroke="#6b6b6b" points="1603,-414.81 1231,-414.81 1231,-197.81 1603,-197.81 1603,-414.81"/>
<text text-anchor="start" x="1270.5" y="-366.61" font-family="Arial" font-size="34.00" fill="#ffffff">Mainframe Banking</text>
<text text-anchor="start" x="1359.5" y="-332.61" font-family="Arial" font-size="34.00" fill="#ffffff">System</text>
<text text-anchor="start" x="1340" y="-310.61" font-family="Arial" font-size="19.00" fill="#ffffff">[Software System]</text>
<text text-anchor="start" x="1260" y="-273.61" font-family="Arial" font-size="24.00" fill="#ffffff">Stores all of the core banking</text>
<text text-anchor="start" x="1260.5" y="-249.61" font-family="Arial" font-size="24.00" fill="#ffffff">information about customers,</text>
<text text-anchor="start" x="1270" y="-225.61" font-family="Arial" font-size="24.00" fill="#ffffff">accounts, transactions, etc.</text>
</g>
<!-- 5 -->
<g id="5" class="node">
<title>5</title>
<polygon fill="#999999" stroke="#6b6b6b" points="892.5,-1666.62 563.5,-1666.62 563.5,-1507.62 892.5,-1507.62 892.5,-1666.62"/>
<text text-anchor="start" x="618" y="-1618.42" font-family="Arial" font-size="34.00" fill="#ffffff">E&#45;mail System</text>
<text text-anchor="start" x="651" y="-1596.42" font-family="Arial" font-size="19.00" fill="#ffffff">[Software System]</text>
<text text-anchor="start" x="611" y="-1559.42" font-family="Arial" font-size="24.00" fill="#ffffff">The internal Microsoft</text>
<text text-anchor="start" x="592.5" y="-1535.42" font-family="Arial" font-size="24.00" fill="#ffffff">Exchange e&#45;mail system.</text>
</g>
<!-- 5&#45;&gt;1 -->
<g id="22" class="edge">
<title>5&#45;&gt;1</title>
<path fill="none" stroke="#707070" stroke-dasharray="5,2" d="M563.18,-1530.95C492.59,-1505.04 410.2,-1471.69 339,-1434.62 327.51,-1428.64 315.85,-1422.07 304.29,-1415.19"/>
<polygon fill="#707070" stroke="#707070" points="305.84,-1412.04 295.47,-1409.88 302.22,-1418.04 305.84,-1412.04"/>
<text text-anchor="start" x="410" y="-1452.42" font-family="Arial" font-size="24.00" fill="#707070">Sends e&#45;mails to</text>
</g>
<!-- 10&#45;&gt;8 -->
<g id="31" class="edge">
<title>10&#45;&gt;8</title>
<path fill="none" stroke="#707070" stroke-dasharray="5,2" d="M886.32,-1226.44C897.03,-1198.05 909.44,-1166.79 922,-1138.62 925.86,-1129.98 929.96,-1121.14 934.19,-1112.27"/>
<polygon fill="#707070" stroke="#707070" points="937.46,-1113.56 938.64,-1103.03 931.15,-1110.52 937.46,-1113.56"/>
<text text-anchor="start" x="922" y="-1171.42" font-family="Arial" font-size="24.00" fill="#707070">Delivers to the customer&#39;s</text>
<text text-anchor="start" x="992" y="-1145.42" font-family="Arial" font-size="24.00" fill="#707070">web browser</text>
</g>
<!-- 11 -->
<g id="11" class="node">
<title>11</title>
<polygon fill="#438dd5" stroke="#2e6295" points="1181,-746.62 781,-746.62 781,-563.62 1181,-563.62 1181,-746.62"/>
<text text-anchor="start" x="866.5" y="-698.42" font-family="Arial" font-size="34.00" fill="#ffffff">API Application</text>
<text text-anchor="start" x="837" y="-676.42" font-family="Arial" font-size="19.00" fill="#ffffff">[Container: Java and Spring MVC]</text>
<text text-anchor="start" x="843.5" y="-639.42" font-family="Arial" font-size="24.00" fill="#ffffff">Provides Internet banking</text>
<text text-anchor="start" x="810" y="-615.42" font-family="Arial" font-size="24.00" fill="#ffffff">functionality via a JSON/HTTPS</text>
<text text-anchor="start" x="958" y="-591.42" font-family="Arial" font-size="24.00" fill="#ffffff">API.</text>
</g>
<!-- 11&#45;&gt;4 -->
<g id="47" class="edge">
<title>11&#45;&gt;4</title>
<path fill="none" stroke="#707070" stroke-dasharray="5,2" d="M1181.23,-568.83C1202.61,-556.34 1223.33,-542.58 1242,-527.62 1278.68,-498.24 1312.51,-459.82 1340.45,-423.31"/>
<polygon fill="#707070" stroke="#707070" points="1343.45,-425.15 1346.69,-415.06 1337.87,-420.92 1343.45,-425.15"/>
<text text-anchor="start" x="1287" y="-509.43" font-family="Arial" font-size="24.00" fill="#707070">Makes API calls to</text>
<text text-anchor="start" x="1327" y="-489.43" font-family="Arial" font-size="19.00" fill="#707070">[XML/HTTPS]</text>
</g>
<!-- 11&#45;&gt;5 -->
<g id="49" class="edge">
<title>11&#45;&gt;5</title>
<path fill="none" stroke="#707070" stroke-dasharray="5,2" d="M1174.27,-746.75C1186.23,-757.55 1197.04,-769.48 1206,-782.62 1308.18,-932.47 1266.58,-1017.05 1214,-1190.62 1177.03,-1312.68 1158.82,-1350.47 1063,-1434.62 1016.66,-1475.32 957.58,-1506.88 901.98,-1530.4"/>
<polygon fill="#707070" stroke="#707070" points="900.61,-1527.18 892.73,-1534.26 903.3,-1533.64 900.61,-1527.18"/>
<text text-anchor="start" x="1229" y="-1158.42" font-family="Arial" font-size="24.00" fill="#707070">Sends e&#45;mail using</text>
</g>
<!-- 18 -->
<g id="18" class="node">
<title>18</title>
<path fill="#438dd5" stroke="#2e6295" d="M1100.5,-422.6C1100.5,-436.86 1015.56,-448.44 911,-448.44 806.44,-448.44 721.5,-436.86 721.5,-422.6 721.5,-422.6 721.5,-190.03 721.5,-190.03 721.5,-175.77 806.44,-164.19 911,-164.19 1015.56,-164.19 1100.5,-175.77 1100.5,-190.03 1100.5,-190.03 1100.5,-422.6 1100.5,-422.6"/>
<path fill="none" stroke="#2e6295" d="M1100.5,-422.6C1100.5,-408.34 1015.56,-396.76 911,-396.76 806.44,-396.76 721.5,-408.34 721.5,-422.6"/>
<text text-anchor="start" x="838" y="-361.61" font-family="Arial" font-size="34.00" fill="#ffffff">Database</text>
<text text-anchor="start" x="750.5" y="-339.61" font-family="Arial" font-size="19.00" fill="#ffffff">[Container: Oracle Database Schema]</text>
<text text-anchor="start" x="785.5" y="-302.61" font-family="Arial" font-size="24.00" fill="#ffffff">Stores user registration</text>
<text text-anchor="start" x="804" y="-278.61" font-family="Arial" font-size="24.00" fill="#ffffff">information, hashed</text>
<text text-anchor="start" x="770" y="-254.61" font-family="Arial" font-size="24.00" fill="#ffffff">authentication credentials,</text>
<text text-anchor="start" x="821.5" y="-230.61" font-family="Arial" font-size="24.00" fill="#ffffff">access logs, etc.</text>
</g>
<!-- 11&#45;&gt;18 -->
<g id="45" class="edge">
<title>11&#45;&gt;18</title>
<path fill="none" stroke="#707070" stroke-dasharray="5,2" d="M962.7,-563.46C956.22,-531.35 948.74,-494.31 941.52,-458.54"/>
<polygon fill="#707070" stroke="#707070" points="944.9,-457.6 939.5,-448.49 938.04,-458.99 944.9,-457.6"/>
<text text-anchor="start" x="954" y="-509.43" font-family="Arial" font-size="24.00" fill="#707070">Reads from and writes to</text>
<text text-anchor="start" x="1058.5" y="-489.43" font-family="Arial" font-size="19.00" fill="#707070">[JDBC]</text>
</g>
<!-- 8&#45;&gt;11 -->
<g id="33" class="edge">
<title>8&#45;&gt;11</title>
<path fill="none" stroke="#707070" stroke-dasharray="5,2" d="M994.27,-861.49C992.05,-827.13 989.65,-790.01 987.51,-756.91"/>
<polygon fill="#707070" stroke="#707070" points="990.99,-756.52 986.86,-746.77 984.01,-756.97 990.99,-756.52"/>
<text text-anchor="start" x="991" y="-807.42" font-family="Arial" font-size="24.00" fill="#707070">Makes API calls to</text>
<text text-anchor="start" x="1025" y="-787.42" font-family="Arial" font-size="19.00" fill="#707070">[JSON/HTTPS]</text>
</g>
<!-- 9&#45;&gt;11 -->
<g id="37" class="edge">
<title>9&#45;&gt;11</title>
<path fill="none" stroke="#707070" stroke-dasharray="5,2" d="M665.18,-878.6C698.36,-846.27 736.53,-811.5 774,-782.62 787.32,-772.36 801.51,-762.23 815.99,-752.43"/>
<polygon fill="#707070" stroke="#707070" points="818.19,-755.17 824.54,-746.7 814.29,-749.35 818.19,-755.17"/>
<text text-anchor="start" x="774" y="-807.42" font-family="Arial" font-size="24.00" fill="#707070">Makes API calls to</text>
<text text-anchor="start" x="808" y="-787.42" font-family="Arial" font-size="19.00" fill="#707070">[JSON/HTTPS]</text>
</g>
</g>
</svg>
