<?xml version="1.0" encoding="UTF-8" standalone="no"?>
<!DOCTYPE svg PUBLIC "-//W3C//DTD SVG 1.1//EN"
 "http://www.w3.org/Graphics/SVG/1.1/DTD/svg11.dtd">
<!-- Generated by graphviz version 2.43.0 (0)
 -->
<!-- Title: %3 Pages: 1 -->
<svg width="1544pt" height="1400pt"
 viewBox="0.00 0.00 1544.00 1399.62" xmlns="http://www.w3.org/2000/svg" xmlns:xlink="http://www.w3.org/1999/xlink">
<g id="graph0" class="graph" transform="scale(1 1) rotate(0) translate(4 1395.62)">
<title>%3</title>
<polygon fill="white" stroke="transparent" points="-4,4 -4,-1395.62 1540,-1395.62 1540,4 -4,4"/>
<text text-anchor="start" x="342" y="-11.8" font-family="Arial" font-size="34.00">Internet Banking System &#45; API Application &#45; Components</text>
<g id="clust1" class="cluster">
<title>cluster_11</title>
<polygon fill="none" stroke="#444444" points="8,-427.62 8,-1060.62 1432,-1060.62 1432,-427.62 8,-427.62"/>
<text text-anchor="start" x="639" y="-456.42" font-family="Arial" font-size="24.00" fill="#444444">API Application</text>
<text text-anchor="start" x="576" y="-436.42" font-family="Arial" font-size="19.00" fill="#444444">[Container: Java and Spring MVC]</text>
</g>
<!-- 4 -->
<g id="4" class="node">
<title>4</title>
<polygon fill="#999999" stroke="#6b6b6b" points="424,-306.81 52,-306.81 52,-89.81 424,-89.81 424,-306.81"/>
<text text-anchor="start" x="91.5" y="-258.61" font-family="Arial" font-size="34.00" fill="#ffffff">Mainframe Banking</text>
<text text-anchor="start" x="180.5" y="-224.61" font-family="Arial" font-size="34.00" fill="#ffffff">System</text>
<text text-anchor="start" x="161" y="-202.61" font-family="Arial" font-size="19.00" fill="#ffffff">[Software System]</text>
<text text-anchor="start" x="81" y="-165.61" font-family="Arial" font-size="24.00" fill="#ffffff">Stores all of the core banking</text>
<text text-anchor="start" x="81.5" y="-141.61" font-family="Arial" font-size="24.00" fill="#ffffff">information about customers,</text>
<text text-anchor="start" x="91" y="-117.61" font-family="Arial" font-size="24.00" fill="#ffffff">accounts, transactions, etc.</text>
</g>
<!-- 5 -->
<g id="5" class="node">
<title>5</title>
<polygon fill="#999999" stroke="#6b6b6b" points="1366.5,-277.81 1037.5,-277.81 1037.5,-118.81 1366.5,-118.81 1366.5,-277.81"/>
<text text-anchor="start" x="1092" y="-229.61" font-family="Arial" font-size="34.00" fill="#ffffff">E&#45;mail System</text>
<text text-anchor="start" x="1125" y="-207.61" font-family="Arial" font-size="19.00" fill="#ffffff">[Software System]</text>
<text text-anchor="start" x="1085" y="-170.61" font-family="Arial" font-size="24.00" fill="#ffffff">The internal Microsoft</text>
<text text-anchor="start" x="1066.5" y="-146.61" font-family="Arial" font-size="24.00" fill="#ffffff">Exchange e&#45;mail system.</text>
</g>
<!-- 8 -->
<g id="8" class="node">
<title>8</title>
<polygon fill="#438dd5" stroke="#2e6295" points="1115.5,-1391.62 758.5,-1391.62 758.5,-1150.62 1115.5,-1150.62 1115.5,-1391.62"/>
<text text-anchor="start" x="845" y="-1343.42" font-family="Arial" font-size="34.00" fill="#ffffff">Single&#45;Page</text>
<text text-anchor="start" x="854" y="-1309.42" font-family="Arial" font-size="34.00" fill="#ffffff">Application</text>
<text text-anchor="start" x="787.5" y="-1287.42" font-family="Arial" font-size="19.00" fill="#ffffff">[Container: JavaScript and Angular]</text>
<text text-anchor="start" x="796" y="-1250.42" font-family="Arial" font-size="24.00" fill="#ffffff">Provides all of the Internet</text>
<text text-anchor="start" x="813.5" y="-1226.42" font-family="Arial" font-size="24.00" fill="#ffffff">banking functionality to</text>
<text text-anchor="start" x="809.5" y="-1202.42" font-family="Arial" font-size="24.00" fill="#ffffff">customers via their web</text>
<text text-anchor="start" x="891" y="-1178.42" font-family="Arial" font-size="24.00" fill="#ffffff">browser.</text>
</g>
<!-- 12 -->
<g id="12" class="node">
<title>12</title>
<polygon fill="#85bbf0" stroke="#5d82a8" points="925,-1006.62 515,-1006.62 515,-847.62 925,-847.62 925,-1006.62"/>
<text text-anchor="start" x="588.5" y="-958.42" font-family="Arial" font-size="34.00" fill="#000000">Sign In Controller</text>
<text text-anchor="start" x="544" y="-936.42" font-family="Arial" font-size="19.00" fill="#000000">[Component: Spring MVC Rest Controller]</text>
<text text-anchor="start" x="566.5" y="-899.42" font-family="Arial" font-size="24.00" fill="#000000">Allows users to sign in to the</text>
<text text-anchor="start" x="584.5" y="-875.42" font-family="Arial" font-size="24.00" fill="#000000">Internet Banking System.</text>
</g>
<!-- 8&#45;&gt;12 -->
<g id="32" class="edge">
<title>8&#45;&gt;12</title>
<path fill="none" stroke="#707070" stroke-dasharray="5,2" d="M861.1,-1150.51C832.86,-1106 801.37,-1056.37 775.32,-1015.31"/>
<polygon fill="#707070" stroke="#707070" points="778.16,-1013.25 769.85,-1006.68 772.25,-1017 778.16,-1013.25"/>
<text text-anchor="start" x="836" y="-1096.42" font-family="Arial" font-size="24.00" fill="#707070">Makes API calls to</text>
<text text-anchor="start" x="870" y="-1076.42" font-family="Arial" font-size="19.00" fill="#707070">[JSON/HTTPS]</text>
</g>
<!-- 13 -->
<g id="13" class="node">
<title>13</title>
<polygon fill="#85bbf0" stroke="#5d82a8" points="443,-1035.62 33,-1035.62 33,-818.62 443,-818.62 443,-1035.62"/>
<text text-anchor="start" x="90" y="-987.42" font-family="Arial" font-size="34.00" fill="#000000">Accounts Summary</text>
<text text-anchor="start" x="164" y="-953.42" font-family="Arial" font-size="34.00" fill="#000000">Controller</text>
<text text-anchor="start" x="62" y="-931.42" font-family="Arial" font-size="19.00" fill="#000000">[Component: Spring MVC Rest Controller]</text>
<text text-anchor="start" x="96.5" y="-894.42" font-family="Arial" font-size="24.00" fill="#000000">Provides customers with a</text>
<text text-anchor="start" x="117.5" y="-870.42" font-family="Arial" font-size="24.00" fill="#000000">summary of their bank</text>
<text text-anchor="start" x="186" y="-846.42" font-family="Arial" font-size="24.00" fill="#000000">accounts.</text>
</g>
<!-- 8&#45;&gt;13 -->
<g id="34" class="edge">
<title>8&#45;&gt;13</title>
<path fill="none" stroke="#707070" stroke-dasharray="5,2" d="M758.45,-1163.98C746.33,-1158.95 734.12,-1154.42 722,-1150.62 568.12,-1102.46 499,-1198.02 361,-1114.62 333.02,-1097.72 310.13,-1071.73 292.02,-1044.47"/>
<polygon fill="#707070" stroke="#707070" points="294.91,-1042.49 286.55,-1035.98 289.02,-1046.28 294.91,-1042.49"/>
<text text-anchor="start" x="361" y="-1096.42" font-family="Arial" font-size="24.00" fill="#707070">Makes API calls to</text>
<text text-anchor="start" x="395" y="-1076.42" font-family="Arial" font-size="19.00" fill="#707070">[JSON/HTTPS]</text>
</g>
<!-- 14 -->
<g id="14" class="node">
<title>14</title>
<polygon fill="#85bbf0" stroke="#5d82a8" points="1407,-1035.62 997,-1035.62 997,-818.62 1407,-818.62 1407,-1035.62"/>
<text text-anchor="start" x="1077.5" y="-987.42" font-family="Arial" font-size="34.00" fill="#000000">Reset Password</text>
<text text-anchor="start" x="1128" y="-953.42" font-family="Arial" font-size="34.00" fill="#000000">Controller</text>
<text text-anchor="start" x="1026" y="-931.42" font-family="Arial" font-size="19.00" fill="#000000">[Component: Spring MVC Rest Controller]</text>
<text text-anchor="start" x="1063.5" y="-894.42" font-family="Arial" font-size="24.00" fill="#000000">Allows users to reset their</text>
<text text-anchor="start" x="1051.5" y="-870.42" font-family="Arial" font-size="24.00" fill="#000000">passwords with a single use</text>
<text text-anchor="start" x="1174.5" y="-846.42" font-family="Arial" font-size="24.00" fill="#000000">URL.</text>
</g>
<!-- 8&#45;&gt;14 -->
<g id="35" class="edge">
<title>8&#45;&gt;14</title>
<path fill="none" stroke="#707070" stroke-dasharray="5,2" d="M1115.64,-1245.05C1194.86,-1224.06 1280.87,-1185.49 1329,-1114.62 1344.32,-1092.07 1341.92,-1067.99 1330.3,-1044.88"/>
<polygon fill="#707070" stroke="#707070" points="1333.33,-1043.13 1325.42,-1036.08 1327.21,-1046.52 1333.33,-1043.13"/>
<text text-anchor="start" x="1339" y="-1096.42" font-family="Arial" font-size="24.00" fill="#707070">Makes API calls to</text>
<text text-anchor="start" x="1373" y="-1076.42" font-family="Arial" font-size="19.00" fill="#707070">[JSON/HTTPS]</text>
</g>
<!-- 9 -->
<g id="9" class="node">
<title>9</title>
<polygon fill="#438dd5" stroke="#2e6295" points="686.5,-1374.62 317.5,-1374.62 317.5,-1167.62 686.5,-1167.62 686.5,-1374.62"/>
<text text-anchor="start" x="418" y="-1326.42" font-family="Arial" font-size="34.00" fill="#ffffff">Mobile App</text>
<text text-anchor="start" x="415" y="-1304.42" font-family="Arial" font-size="19.00" fill="#ffffff">[Container: Xamarin]</text>
<text text-anchor="start" x="354" y="-1267.42" font-family="Arial" font-size="24.00" fill="#ffffff">Provides a limited subset of</text>
<text text-anchor="start" x="394.5" y="-1243.42" font-family="Arial" font-size="24.00" fill="#ffffff">the Internet banking</text>
<text text-anchor="start" x="346.5" y="-1219.42" font-family="Arial" font-size="24.00" fill="#ffffff">functionality to customers via</text>
<text text-anchor="start" x="397.5" y="-1195.42" font-family="Arial" font-size="24.00" fill="#ffffff">their mobile device.</text>
</g>
<!-- 9&#45;&gt;12 -->
<g id="36" class="edge">
<title>9&#45;&gt;12</title>
<path fill="none" stroke="#707070" stroke-dasharray="5,2" d="M547.64,-1167.42C563.14,-1135.85 581.5,-1101.55 601,-1071.62 613.41,-1052.58 627.97,-1033.18 642.56,-1015.06"/>
<polygon fill="#707070" stroke="#707070" points="645.67,-1016.79 649.26,-1006.83 640.24,-1012.37 645.67,-1016.79"/>
<text text-anchor="start" x="601" y="-1096.42" font-family="Arial" font-size="24.00" fill="#707070">Makes API calls to</text>
<text text-anchor="start" x="635" y="-1076.42" font-family="Arial" font-size="19.00" fill="#707070">[JSON/HTTPS]</text>
</g>
<!-- 9&#45;&gt;13 -->
<g id="38" class="edge">
<title>9&#45;&gt;13</title>
<path fill="none" stroke="#707070" stroke-dasharray="5,2" d="M317.22,-1233.67C197.74,-1205.92 58,-1164.13 22,-1114.62 2.69,-1088.08 7.85,-1062.78 26.1,-1039.86"/>
<polygon fill="#707070" stroke="#707070" points="28.86,-1042.02 32.78,-1032.18 23.57,-1037.43 28.86,-1042.02"/>
<text text-anchor="start" x="22" y="-1096.42" font-family="Arial" font-size="24.00" fill="#707070">Makes API calls to</text>
<text text-anchor="start" x="56" y="-1076.42" font-family="Arial" font-size="19.00" fill="#707070">[JSON/HTTPS]</text>
</g>
<!-- 9&#45;&gt;14 -->
<g id="39" class="edge">
<title>9&#45;&gt;14</title>
<path fill="none" stroke="#707070" stroke-dasharray="5,2" d="M676.78,-1167.54C691.77,-1161.1 706.96,-1155.33 722,-1150.62 862.38,-1106.69 921.88,-1185.09 1051,-1114.62 1081.95,-1097.73 1108.95,-1071.62 1131.21,-1044.23"/>
<polygon fill="#707070" stroke="#707070" points="1134.2,-1046.1 1137.67,-1036.09 1128.71,-1041.75 1134.2,-1046.1"/>
<text text-anchor="start" x="1103" y="-1096.42" font-family="Arial" font-size="24.00" fill="#707070">Makes API calls to</text>
<text text-anchor="start" x="1137" y="-1076.42" font-family="Arial" font-size="19.00" fill="#707070">[JSON/HTTPS]</text>
</g>
<!-- 18 -->
<g id="18" class="node">
<title>18</title>
<path fill="#438dd5" stroke="#2e6295" d="M951.5,-314.6C951.5,-328.86 866.56,-340.44 762,-340.44 657.44,-340.44 572.5,-328.86 572.5,-314.6 572.5,-314.6 572.5,-82.03 572.5,-82.03 572.5,-67.77 657.44,-56.19 762,-56.19 866.56,-56.19 951.5,-67.77 951.5,-82.03 951.5,-82.03 951.5,-314.6 951.5,-314.6"/>
<path fill="none" stroke="#2e6295" d="M951.5,-314.6C951.5,-300.34 866.56,-288.76 762,-288.76 657.44,-288.76 572.5,-300.34 572.5,-314.6"/>
<text text-anchor="start" x="689" y="-253.61" font-family="Arial" font-size="34.00" fill="#ffffff">Database</text>
<text text-anchor="start" x="601.5" y="-231.61" font-family="Arial" font-size="19.00" fill="#ffffff">[Container: Oracle Database Schema]</text>
<text text-anchor="start" x="636.5" y="-194.61" font-family="Arial" font-size="24.00" fill="#ffffff">Stores user registration</text>
<text text-anchor="start" x="655" y="-170.61" font-family="Arial" font-size="24.00" fill="#ffffff">information, hashed</text>
<text text-anchor="start" x="621" y="-146.61" font-family="Arial" font-size="24.00" fill="#ffffff">authentication credentials,</text>
<text text-anchor="start" x="672.5" y="-122.61" font-family="Arial" font-size="24.00" fill="#ffffff">access logs, etc.</text>
</g>
<!-- 15 -->
<g id="15" class="node">
<title>15</title>
<polygon fill="#85bbf0" stroke="#5d82a8" points="946,-715.62 578,-715.62 578,-532.62 946,-532.62 946,-715.62"/>
<text text-anchor="start" x="607.5" y="-667.42" font-family="Arial" font-size="34.00" fill="#000000">Security Component</text>
<text text-anchor="start" x="650.5" y="-645.42" font-family="Arial" font-size="19.00" fill="#000000">[Component: Spring Bean]</text>
<text text-anchor="start" x="607" y="-608.42" font-family="Arial" font-size="24.00" fill="#000000">Provides functionality related</text>
<text text-anchor="start" x="641.5" y="-584.42" font-family="Arial" font-size="24.00" fill="#000000">to signing in, changing</text>
<text text-anchor="start" x="677.5" y="-560.42" font-family="Arial" font-size="24.00" fill="#000000">passwords, etc.</text>
</g>
<!-- 12&#45;&gt;15 -->
<g id="40" class="edge">
<title>12&#45;&gt;15</title>
<path fill="none" stroke="#707070" stroke-dasharray="5,2" d="M730.98,-847.43C736.17,-810.26 742.42,-765.45 747.95,-725.83"/>
<polygon fill="#707070" stroke="#707070" points="751.42,-726.27 749.34,-715.88 744.49,-725.3 751.42,-726.27"/>
<text text-anchor="start" x="744" y="-763.42" font-family="Arial" font-size="24.00" fill="#707070">Uses</text>
</g>
<!-- 16 -->
<g id="16" class="node">
<title>16</title>
<polygon fill="#85bbf0" stroke="#5d82a8" points="422.5,-720.62 53.5,-720.62 53.5,-527.62 422.5,-527.62 422.5,-720.62"/>
<text text-anchor="start" x="91.5" y="-672.42" font-family="Arial" font-size="34.00" fill="#000000">Mainframe Banking</text>
<text text-anchor="start" x="119" y="-638.42" font-family="Arial" font-size="34.00" fill="#000000">System Facade</text>
<text text-anchor="start" x="126.5" y="-616.42" font-family="Arial" font-size="19.00" fill="#000000">[Component: Spring Bean]</text>
<text text-anchor="start" x="82.5" y="-579.42" font-family="Arial" font-size="24.00" fill="#000000">A facade onto the mainframe</text>
<text text-anchor="start" x="150.5" y="-555.42" font-family="Arial" font-size="24.00" fill="#000000">banking system.</text>
</g>
<!-- 13&#45;&gt;16 -->
<g id="41" class="edge">
<title>13&#45;&gt;16</title>
<path fill="none" stroke="#707070" stroke-dasharray="5,2" d="M238,-818.31C238,-789.91 238,-759.31 238,-731.01"/>
<polygon fill="#707070" stroke="#707070" points="241.5,-730.7 238,-720.7 234.5,-730.7 241.5,-730.7"/>
<text text-anchor="start" x="238" y="-763.42" font-family="Arial" font-size="24.00" fill="#707070">Uses</text>
</g>
<!-- 14&#45;&gt;15 -->
<g id="42" class="edge">
<title>14&#45;&gt;15</title>
<path fill="none" stroke="#707070" stroke-dasharray="5,2" d="M1044.7,-818.52C998.37,-786.82 947.99,-752.36 902.77,-721.42"/>
<polygon fill="#707070" stroke="#707070" points="904.61,-718.45 894.38,-715.69 900.66,-724.22 904.61,-718.45"/>
<text text-anchor="start" x="982" y="-763.42" font-family="Arial" font-size="24.00" fill="#707070">Uses</text>
</g>
<!-- 17 -->
<g id="17" class="node">
<title>17</title>
<polygon fill="#85bbf0" stroke="#5d82a8" points="1372,-691.62 1032,-691.62 1032,-556.62 1372,-556.62 1372,-691.62"/>
<text text-anchor="start" x="1061" y="-643.42" font-family="Arial" font-size="34.00" fill="#000000">E&#45;mail Component</text>
<text text-anchor="start" x="1090.5" y="-621.42" font-family="Arial" font-size="19.00" fill="#000000">[Component: Spring Bean]</text>
<text text-anchor="start" x="1075.5" y="-584.42" font-family="Arial" font-size="24.00" fill="#000000">Sends e&#45;mails to users.</text>
</g>
<!-- 14&#45;&gt;17 -->
<g id="43" class="edge">
<title>14&#45;&gt;17</title>
<path fill="none" stroke="#707070" stroke-dasharray="5,2" d="M1202,-818.31C1202,-779.92 1202,-737.5 1202,-702.21"/>
<polygon fill="#707070" stroke="#707070" points="1205.5,-701.98 1202,-691.98 1198.5,-701.98 1205.5,-701.98"/>
<text text-anchor="start" x="1202" y="-763.42" font-family="Arial" font-size="24.00" fill="#707070">Uses</text>
</g>
<!-- 15&#45;&gt;18 -->
<g id="44" class="edge">
<title>15&#45;&gt;18</title>
<path fill="none" stroke="#707070" stroke-dasharray="5,2" d="M762,-532.47C762,-479.6 762,-411.57 762,-350.78"/>
<polygon fill="#707070" stroke="#707070" points="765.5,-350.69 762,-340.69 758.5,-350.69 765.5,-350.69"/>
<text text-anchor="start" x="762" y="-401.43" font-family="Arial" font-size="24.00" fill="#707070">Reads from and writes to</text>
<text text-anchor="start" x="866.5" y="-381.43" font-family="Arial" font-size="19.00" fill="#707070">[JDBC]</text>
</g>
<!-- 16&#45;&gt;4 -->
<g id="46" class="edge">
<title>16&#45;&gt;4</title>
<path fill="none" stroke="#707070" stroke-dasharray="5,2" d="M238,-527.48C238,-465.13 238,-383.33 238,-317"/>
<polygon fill="#707070" stroke="#707070" points="241.5,-316.91 238,-306.91 234.5,-316.91 241.5,-316.91"/>
<text text-anchor="start" x="238" y="-401.43" font-family="Arial" font-size="24.00" fill="#707070">Makes API calls to</text>
<text text-anchor="start" x="278" y="-381.43" font-family="Arial" font-size="19.00" fill="#707070">[XML/HTTPS]</text>
</g>
<!-- 17&#45;&gt;5 -->
<g id="48" class="edge">
<title>17&#45;&gt;5</title>
<path fill="none" stroke="#707070" stroke-dasharray="5,2" d="M1202,-556.44C1202,-484.01 1202,-367.97 1202,-287.92"/>
<polygon fill="#707070" stroke="#707070" points="1205.5,-287.85 1202,-277.85 1198.5,-287.85 1205.5,-287.85"/>
<text text-anchor="start" x="1202" y="-391.93" font-family="Arial" font-size="24.00" fill="#707070">Sends e&#45;mail using</text>
</g>
</g>
</svg>
